<svg width="50" height="50" viewBox="0 0 50 50" fill="none" xmlns="http://www.w3.org/2000/svg">
<path id="Vector" d="M24.7 0.477966C11.1 0.477966 0 11.578 0 25.178C0 38.778 11.1 49.878 24.7 49.878C38.3 49.878 49.4 38.778 49.4 25.178C49.4 11.578 38.3 0.477966 24.7 0.477966ZM6.9 25.178C6.9 20.078 9.1 15.378 12.6 12.178C14 10.878 16.4 11.278 17.4 12.978L23.6 23.678C24.2 24.678 24.2 25.878 23.6 26.878L17.4 37.578C16.4 39.378 14 39.678 12.5 38.278C9.1 34.878 6.9 30.278 6.9 25.178ZM32 37.378L25.8 26.678C25.2 25.678 25.2 24.478 25.8 23.478L32 12.778C33 11.078 35.3 10.678 36.8 11.978C40.3 15.178 42.5 19.878 42.5 24.978C42.5 30.078 40.3 34.778 36.8 37.978C35.3 39.578 33 39.178 32 37.378Z" fill="white"/>
</svg>
