<svg fill="none" xmlns="http://www.w3.org/2000/svg">
<g clip-path="url(#clip0_141_4)">
<path d="M468.924 87.2678C411.154 10.9353 289.116 -20.085 169.096 13.3202C105.645 30.9507 44.4669 66.276 14.1484 134.677C-40.0492 256.952 73.7455 296.003 148.155 308.449C184.135 314.468 218.023 324.577 248.989 338.341C304.701 363.104 403.314 385.046 477.676 281.898C531.573 207.136 507.405 138.113 468.924 87.2678Z" fill="var(--background)"/>
<path d="M133.99 102.37C133.828 101.157 133.502 99.9686 133.018 98.8354C132.956 98.6211 132.848 98.4214 132.701 98.2489C132.553 98.0764 132.369 97.935 132.161 97.8336C131.883 97.7649 131.591 97.7618 131.311 97.8246L126.947 98.4586C126.582 98.4745 126.232 98.6035 125.952 98.826C125.383 99.3935 125.943 100.307 125.926 101.09C125.906 101.971 125.082 102.686 124.189 102.922C123.277 103.097 122.336 103.086 121.429 102.89L115.327 101.989C117.124 101.444 118.724 100.431 119.943 99.0642C120.746 98.161 121.173 96.4747 120.013 96.0469C119.668 95.9571 119.309 95.9297 118.953 95.9661C116.189 95.9865 114.013 93.7948 111.425 92.8717C109.769 92.3191 107.971 92.278 106.288 92.7543C104.605 93.2305 103.125 94.1998 102.057 95.5234L105.308 95.6722C105.614 95.6562 105.917 95.733 106.174 95.8915C106.886 96.4472 106 97.5147 106.101 98.3849C106.231 99.5155 107.812 99.7569 109.004 99.8713C110.196 99.9856 111.708 100.905 111.134 101.904C105.144 103.863 99.0486 98.0741 92.7578 98.7866C91.1656 98.967 89.6622 99.5609 88.1077 99.9344C78.6118 102.216 68.7948 96.1289 59.0942 97.4179C56.9376 97.767 54.8181 98.2978 52.7607 99.004C51.4405 99.4156 50.0633 99.8604 49.104 100.815C48.1448 101.77 47.7797 103.402 48.6884 104.4C46.1836 104.596 43.662 104.369 41.2409 103.728C41.8956 104.074 42.4403 104.58 42.8177 105.195C43.1952 105.809 43.3915 106.509 43.386 107.22C39.475 107.825 35.6675 108.928 32.0661 110.497C32.7382 111.559 33.5233 112.552 34.409 113.461L29.4578 116.481C31.1305 116.881 31.9954 119.047 31.0226 120.4C32.7571 119.667 33.832 117.772 35.6868 117.388C36.9019 117.136 38.1382 117.608 39.291 118.051C40.4437 118.495 41.7106 118.925 42.9039 118.592C44.0972 118.259 44.9773 116.79 44.2191 115.854C49.3195 114.441 54.5907 113.659 59.902 113.527C60.3118 113.478 60.7273 113.553 61.0898 113.741C61.7812 114.197 61.5992 115.18 61.562 115.979C61.5248 116.777 62.18 117.826 62.9313 117.466C62.0474 118.194 62.803 119.564 63.6511 120.33C64.4992 121.095 65.5214 122.151 65.0022 123.147C64.8667 123.407 64.6368 123.615 64.5064 123.877C64.1216 124.651 64.7326 125.553 65.4534 126.067C66.1742 126.581 67.057 126.94 67.5577 127.652C68.0584 128.364 67.831 129.609 66.9357 129.709L64.391 126.641C63.5216 127.497 62.9255 128.569 62.672 129.734C65.3704 131.829 65.7763 136.092 63.5172 138.612C62.3627 139.9 60.721 140.682 59.2881 141.687C57.8552 142.691 56.5294 144.122 56.533 145.813C56.5392 148.735 56.2878 151.449 57.4408 154.158C59.5671 159.153 62.022 164.016 64.7909 168.719C65.518 169.954 66.4578 171.307 67.9308 171.52C66.0692 167.216 64.3934 162.846 62.9033 158.409C63.8738 158.413 64.9953 158.486 65.5643 159.232C66.0354 159.851 65.9342 160.691 66.0806 161.442C66.2667 162.168 66.5772 162.861 66.9996 163.493L75.8893 178.529C76.6263 179.775 77.4716 181.113 78.88 181.618C79.7805 181.941 80.8223 181.88 81.6512 182.345C82.3008 182.709 82.7384 183.355 83.4007 183.699C85.2733 184.669 87.8775 182.808 89.6275 183.966C90.1279 184.297 90.4463 184.824 90.9073 185.203C92.5237 186.532 95.1751 185.643 97.041 186.634C98.2435 187.273 98.8667 188.551 99.5081 189.709C101.115 192.61 103.714 195.452 107.158 195.683C108.239 195.755 109.344 195.561 110.401 195.789C111.458 196.018 112.499 196.894 112.329 197.911C112.039 199.654 112.946 201.563 112.702 203.313C112.258 206.5 107.497 207.901 107.088 211.092C106.998 211.791 107.139 212.512 106.963 213.196C106.749 214.034 106.085 214.717 105.85 215.55C105.403 217.129 106.595 218.701 107.904 219.763C109.213 220.825 110.774 221.742 111.489 223.229C112.246 224.8 111.874 226.633 112.12 228.346C112.657 232.084 116.058 234.855 119.557 236.642C120.623 237.186 121.768 237.713 122.458 238.658C123.359 239.89 123.269 241.515 123.57 242.988C124.306 246.595 127.504 249.567 127.595 253.241C127.66 255.852 126.131 258.22 125.218 260.684C124.362 263.044 124.053 265.552 124.31 268.036C124.568 270.52 125.387 272.923 126.711 275.079C127.394 276.174 128.211 277.207 128.694 278.394C129.556 280.513 129.277 282.921 130.072 285.063C131.123 287.895 134.011 290.234 133.734 293.225C135.045 295.811 137.941 297.081 140.852 297.851L146.07 299.23C147.069 299.494 148.113 299.76 149.13 299.569C150.148 299.378 151.119 298.576 151.092 297.591C148.534 297.043 145.893 296.461 143.784 294.98C141.674 293.499 140.229 290.863 141.03 288.491C141.401 287.391 142.19 286.121 141.44 285.212C141.01 284.692 140.224 284.556 139.739 284.081C138.983 283.341 139.243 282.097 139.787 281.204C140.33 280.311 141.116 279.513 141.335 278.503C141.446 277.938 141.372 277.354 141.123 276.83C140.874 276.306 140.463 275.867 139.944 275.571C140.911 275.224 141.791 274.688 142.526 273.998C143.206 273.261 143.519 272.126 142.985 271.289C144.572 271.48 146.445 271.573 147.486 270.421C148.318 269.501 148.261 268.125 147.932 266.953C147.604 265.781 147.048 264.643 147.031 263.43C150.691 263.595 154.359 263.477 157.998 263.077C157.472 261.394 156.276 259.972 154.664 259.112C156.312 258.847 157.814 256.973 158.335 255.465C158.856 253.956 158.723 252.313 158.401 250.755C158.277 250.354 158.26 249.93 158.352 249.521C158.537 248.96 159.119 248.617 159.656 248.324L167.839 243.862C168.327 243.629 168.769 243.319 169.147 242.945C170.004 241.988 169.877 240.545 169.438 239.361C168.999 238.176 168.296 237.062 168.127 235.817C167.621 232.092 171.821 229.42 173.238 225.914C173.794 224.538 173.907 223.042 174.015 221.572C174.13 219.993 174.139 218.158 172.862 217.141C171.638 216.165 169.725 216.383 168.445 215.476C167.27 214.644 166.865 213.028 165.582 212.356C164.417 211.746 162.957 212.134 161.661 211.847C159.38 211.342 157.944 208.845 155.614 208.614C154.299 208.484 152.812 209.094 151.734 208.367C150.785 207.726 150.747 206.439 150.566 205.346C150.249 203.649 149.392 202.084 148.11 200.862C146.828 199.641 145.183 198.822 143.396 198.516C142.04 198.31 140.565 198.388 139.412 197.681C138.244 196.965 137.709 195.624 136.792 194.632C135.314 193.034 132.986 192.466 130.805 191.979L121.934 189.999C120.359 189.647 118.33 189.461 117.485 190.771C117.234 191.269 117.057 191.798 116.958 192.343C116.642 193.327 116.004 194.191 115.138 194.81C114.272 195.429 113.221 195.772 112.137 195.788C111.394 194.584 110.189 193.699 108.775 193.318C107.876 193.08 106.913 193.054 106.055 192.703C105.588 192.487 105.172 192.182 104.833 191.808C104.494 191.433 104.239 190.997 104.084 190.526C103.929 190.055 103.877 189.559 103.931 189.068C103.984 188.577 104.143 188.101 104.397 187.67C104.908 186.806 105.106 185.805 104.959 184.824C104.812 183.842 104.329 182.933 103.584 182.238C102.076 180.952 99.8935 180.641 97.8708 180.77C97.341 179.672 98.2268 178.434 99.1814 177.636C100.136 176.839 101.295 176.054 101.503 174.863C101.83 172.99 99.3121 171.567 97.4004 172.125C95.4887 172.684 94.2685 174.447 93.462 176.185C92.9992 177.182 92.6057 178.232 91.8758 179.073C91.1458 179.914 89.9702 180.516 88.8584 180.246C87.2842 179.864 86.6763 178.088 86.3279 176.581C85.8605 174.56 85.3903 172.51 85.4883 170.442C85.5862 168.375 86.3203 166.251 87.9261 164.852C90.5428 162.571 94.557 162.794 98.0885 163.158C97.2541 162.266 97.4603 160.761 98.353 159.921C98.8243 159.524 99.3905 159.241 100.003 159.098C100.615 158.955 101.254 158.957 101.866 159.102C102.93 159.312 103.889 159.856 104.588 160.647C105.591 161.808 105.877 163.377 106.635 164.696C107.394 166.014 109.099 167.139 110.495 166.432C111.701 165.821 111.893 164.233 111.592 162.967C111.292 161.701 110.655 160.469 110.764 159.176C110.971 156.707 113.666 155.221 116.044 154.205C118.422 153.188 121.145 151.821 121.522 149.37C121.535 148.891 121.63 148.416 121.804 147.965C122.068 147.567 122.435 147.24 122.869 147.015C129.81 142.659 136.866 138.251 144.799 135.871C145.211 135.747 145.26 135.885 145.68 135.788C146.269 135.465 145.879 134.571 145.315 134.211C144.75 133.851 143.996 133.575 143.853 132.944C143.747 132.48 144.035 132.025 144.11 131.555C144.294 130.402 142.841 129.338 141.713 129.799C141.076 128.997 142.337 128.066 143.356 127.8C146.418 127 149.56 126.512 152.731 126.346C153.097 126.29 153.471 126.351 153.797 126.518C154.33 126.868 154.262 127.671 153.885 128.171C153.507 128.671 152.92 128.985 152.45 129.408C151.936 129.884 151.57 130.484 151.39 131.143C151.211 131.803 151.226 132.496 151.434 133.148C153.089 133.948 154.889 134.771 156.722 134.489C158.555 134.207 160.182 132.252 159.32 130.69C158.518 129.235 156.108 128.907 155.693 127.313C155.208 125.447 157.99 123.787 157.364 121.959C157.089 121.158 156.249 120.687 155.604 120.108C154.842 119.4 154.324 118.489 154.118 117.495C153.911 116.502 154.026 115.472 154.447 114.542C153.396 114.717 152.317 114.651 151.299 114.349C150.281 114.046 149.355 113.516 148.597 112.804C147.198 111.463 146.081 109.348 144.094 109.408C142.271 109.463 140.701 111.483 138.996 110.866C138.576 110.715 138.134 110.406 137.728 110.587C137.594 110.669 137.483 110.779 137.401 110.908C137.319 111.037 137.269 111.182 137.255 111.333C136.821 113.3 137.567 115.541 136.438 117.24C135.209 119.09 132.367 119.346 130.878 121.014C130.07 121.919 129.756 123.139 129.013 124.094C128.27 125.048 126.693 125.655 125.801 124.823C126.239 123.968 126.359 122.996 126.14 122.068C125.922 121.139 125.378 120.308 124.598 119.711C123.77 119.198 122.878 118.786 121.941 118.484C120.895 118.064 119.9 117.537 118.973 116.914C118.509 116.648 118.132 116.265 117.884 115.807C117.688 115.233 117.714 114.612 117.958 114.056C118.411 112.825 119.208 111.735 120.266 110.903C121.323 110.07 122.599 109.528 123.957 109.335C125.145 109.182 126.527 109.236 127.313 108.377C127.728 107.922 127.947 107.235 128.55 107.05C128.936 106.976 129.337 107.023 129.693 107.184L134.125 108.665C134.619 108.877 135.164 108.962 135.704 108.913C135.971 108.879 136.216 108.75 136.387 108.551C136.559 108.353 136.645 108.101 136.629 107.845C136.488 107.146 135.355 106.811 135.458 106.106C135.516 105.877 135.645 105.671 135.829 105.514C137.429 103.897 139.385 102.636 141.557 101.822C143.73 101.007 146.066 100.658 148.397 100.801C148.956 101.674 148.071 102.707 147.335 103.451C146.599 104.196 146.008 105.527 146.898 106.1C147.263 106.277 147.668 106.364 148.078 106.352C149.169 106.493 150.23 106.798 151.219 107.257C152.75 107.89 154.253 108.582 155.725 109.334C155.595 108.412 155.471 107.441 155.839 106.579C156.207 105.717 157.253 105.04 158.167 105.376C159.048 105.7 159.499 106.807 160.437 106.908C161.689 107.044 162.182 105.288 161.66 104.2C161.137 103.112 160.102 102.201 160.016 101.008C159.958 100.203 160.28 99.2045 159.603 98.7171C159.362 98.5707 159.089 98.4797 158.804 98.4511L141.896 95.4968C140.892 95.3213 139.442 95.4558 139.397 96.4242C139.372 96.9648 139.881 97.4996 139.656 97.9966C139.415 98.527 138.626 98.4785 138.05 98.6662C137.158 98.9573 136.71 99.9635 136.796 100.856C136.953 101.743 137.314 102.585 137.855 103.324C136.755 102.887 135.09 102.807 133.99 102.37Z" fill="#E27612"/>
<path d="M120.499 88.7418C119.433 88.4067 118.284 88.3911 117.209 88.6971C116.133 89.003 115.182 89.6157 114.485 90.452C114.207 90.8 113.973 91.2798 114.206 91.6567C114.54 92.197 115.392 91.9836 116.019 91.7903C116.942 91.4774 117.946 91.4546 118.884 91.7255C119.473 91.9176 120 92.2572 120.592 92.4421C120.88 92.5566 121.196 92.5944 121.505 92.5515C121.814 92.5086 122.105 92.3866 122.347 92.1987C122.753 91.8052 122.779 91.1935 122.779 90.6425C122.807 90.4581 122.792 90.2701 122.734 90.0921C122.676 89.9142 122.576 89.7508 122.443 89.6139C122.206 89.4836 121.94 89.4088 121.667 89.3957C121.054 89.2881 120.5 88.9808 120.101 88.527" fill="#E27612"/>
<path d="M126.596 87.13C126.357 87.1177 126.119 87.1638 125.905 87.264C125.691 87.3643 125.507 87.5152 125.372 87.7022C125.237 87.8893 125.154 88.1063 125.133 88.3322C125.112 88.5582 125.152 88.7856 125.25 88.9926C125.983 89.1823 126.748 89.2297 127.501 89.1319C127.876 89.0766 128.226 88.917 128.506 88.6733C128.786 88.4296 128.983 88.1126 129.074 87.7623C128.188 87.9154 127.274 87.7496 126.509 87.2973" fill="#E27612"/>
<path d="M147.051 84.4382C145.056 84.8408 143.119 85.4657 141.279 86.2999C142.146 86.6165 142.884 87.1893 143.382 87.9339C143.881 88.6785 144.115 89.5555 144.049 90.4357C143.971 90.7736 143.98 91.1243 144.075 91.4582C144.287 91.9462 144.901 92.1293 145.441 92.2545C146.411 92.5349 147.425 92.6577 148.438 92.6177C148.945 92.5925 149.437 92.4477 149.87 92.1964C150.303 91.9451 150.663 91.5953 150.918 91.1785C151.065 90.7829 151.237 90.3962 151.434 90.0207C152.728 88.1488 156.574 90.4122 157.964 88.603C158.453 87.9657 158.408 87.0064 159.047 86.5013C159.377 86.2813 159.759 86.1427 160.16 86.0979C162.955 85.5707 165.778 85.1889 168.617 84.9543C169.962 84.8432 171.715 84.3846 171.726 83.1026C166.66 82.1579 161.407 82.8289 156.783 85.0113C155.118 85.8035 152.915 87.4699 151.31 86.4197C150.709 86.0264 150.739 84.9676 149.912 84.5254C149.067 84.0733 147.948 84.2572 147.051 84.4382Z" fill="#E27612"/>
<path d="M163.619 87.3801L165.997 87.814C165.559 87.7956 165.122 87.8661 164.716 88.0207C164.309 88.1753 163.941 88.4105 163.638 88.7106C163.334 89.0107 163.102 89.3688 162.956 89.761C162.809 90.1533 162.753 90.5706 162.79 90.9852C165.017 91.6916 167.445 91.0042 169.791 91.0981C172.137 91.192 174.867 92.7832 174.466 94.98C174.345 95.6443 173.941 96.3081 174.151 96.952C174.298 97.4034 174.718 97.7236 174.954 98.1393C175.447 99.0055 175.053 100.101 174.431 100.888C173.808 101.676 172.971 102.304 172.425 103.141C171.065 105.222 171.838 107.913 172.647 110.238C172.881 111.116 173.314 111.936 173.914 112.64C175.114 113.851 177.069 113.956 178.819 113.981C180.094 113.998 181.553 113.939 182.359 113.001C183.411 111.777 182.675 109.868 183.368 108.432C183.997 107.127 185.6 106.567 187.052 106.171C189.712 105.443 192.423 104.825 194.938 103.727C198.06 102.363 200.979 100.237 204.411 100.062C205.374 100.013 206.361 100.121 207.288 99.8701C208.216 99.6195 209.097 98.8581 209.027 97.9449C208.967 97.1646 208.272 96.5916 207.728 96.0034C207.185 95.4152 206.758 94.5107 207.258 93.8883L216.254 92.2927C215.617 90.6425 215.12 88.4691 216.585 87.395C217.114 87.0074 217.822 86.8525 218.272 86.384C219.039 85.5854 218.654 84.2098 217.768 83.5307C216.882 82.8515 215.685 82.6939 214.55 82.6044C210.605 82.2933 206.638 82.4989 202.685 82.7046C194.959 83.1067 187.233 83.5088 179.507 83.911C177.951 83.9919 176.156 83.8682 174.729 84.3721C173.522 84.7986 172.663 85.5816 171.282 85.8567C168.732 86.3646 165.926 86.0209 163.619 87.3801Z" fill="#E27612"/>
<path d="M206.223 105.229C205.981 105.193 205.733 105.246 205.531 105.378C205.397 105.518 205.318 105.697 205.306 105.885C205.152 106.716 205.335 107.572 205.818 108.281C206.064 108.629 206.403 108.907 206.801 109.088C207.198 109.269 207.64 109.346 208.079 109.31C209.15 109.181 209.939 108.313 210.924 107.89C212.441 107.238 218.885 106.222 214.427 103.935C212.891 103.147 211.899 103.843 210.688 104.362C209.31 105.031 207.767 105.331 206.223 105.229Z" fill="#E27612"/>
<path d="M245.265 86.0893C244.745 86.2912 244.31 86.6511 244.027 87.1127C243.897 87.3472 243.867 87.6201 243.943 87.8751C244.019 88.1301 244.195 88.3476 244.435 88.4826C244.629 88.5496 244.836 88.5806 245.042 88.5741L247.159 88.6341C248.058 88.6596 249.181 88.8414 249.422 89.6641C249.602 90.275 249.2 91.0599 249.685 91.4965C249.892 91.6494 250.142 91.7419 250.405 91.7631C251.102 91.9332 251.83 91.9555 252.537 91.8285C254.077 91.4363 253.268 90.5439 253.753 89.7493C254.495 88.5335 254.366 89.2695 255.674 88.5727C256.639 88.0581 257.887 87.1246 257.081 85.813C255.68 83.5322 247.334 85.1094 245.265 86.0893Z" fill="#E27612"/>
<path d="M287.037 84.9426L285.808 85.0983C283.037 85.4494 280.25 85.8038 277.581 86.594C278.736 87.0277 279.948 87.3101 281.184 87.4335C281.864 87.4651 282.54 87.5563 283.202 87.7059C284.381 88.0391 285.569 88.8996 286.708 88.4588C287.414 88.1855 287.644 87.4873 288.229 87.1173C288.633 86.8618 290.165 86.4483 290.337 86.1904C291.721 84.1056 288.101 84.8077 287.037 84.9426Z" fill="#E27612"/>
<path d="M292.433 90.246C290.791 91.1175 289.268 92.1766 287.898 93.3995C287.321 93.9149 286.731 94.5559 286.783 95.3067C286.853 96.3046 287.972 96.8834 288.942 97.2733L292.871 98.8527C293.347 98.2149 292.911 97.3344 292.419 96.7076C291.926 96.0808 291.341 95.3556 291.558 94.6014C291.807 93.7407 292.912 93.4473 293.839 93.2991C295.349 93.0575 299.422 93.0768 298.933 90.766C298.356 88.0431 293.949 89.4414 292.433 90.246Z" fill="#E27612"/>
<path d="M291.643 244.335C291.269 245.363 291.234 246.574 291.88 247.472C292.606 248.479 294.059 248.855 295.316 248.599C296.568 248.283 297.683 247.602 298.506 246.652C299.258 245.856 299.877 244.955 300.341 243.98C300.988 242.462 301.444 240.876 301.701 239.256L302.92 233.175C303.193 231.816 303.182 227.649 300.552 229.006C299.833 229.377 298.169 232.305 297.416 233.136C296.059 234.632 295.879 236.084 295.164 237.897C294.269 240.168 292.47 242.061 291.643 244.335Z" fill="#E27612"/>
<path d="M430.586 275.454C429.726 275.135 428.89 274.757 428.087 274.324C427.281 276.427 426.853 278.644 426.819 280.882L432.71 277.717C433.596 277.241 434.6 276.579 434.581 275.613C434.589 275.493 434.563 275.374 434.506 275.267C434.448 275.161 434.362 275.071 434.255 275.007C434.124 274.957 433.982 274.941 433.842 274.961C432.969 275.03 432.173 275.438 431.349 275.722C430.525 276.006 429.561 276.156 428.805 275.735" fill="#E27612"/>
<path d="M461.659 277.333C461.012 277.5 460.381 277.715 459.77 277.976C458.418 278.629 457.498 279.87 456.282 280.73C455.118 281.553 453.717 282.005 452.341 282.444C451.937 282.784 452.123 283.468 452.562 283.766C453.034 284.021 453.576 284.137 454.117 284.098C455.547 284.128 457.052 284.141 458.304 283.486C459.009 283.051 459.669 282.554 460.275 282C461.738 280.841 463.496 280.076 465.236 279.337C465.869 279.11 466.454 278.777 466.965 278.355C468.058 277.332 468.135 275.755 466.558 275.407C465.285 275.125 462.871 276.96 461.659 277.333Z" fill="#E27612"/>
<path d="M475.388 268.817C475.458 268.114 475.36 267.404 475.1 266.742C474.839 266.079 474.424 265.482 473.884 264.994C473.868 266.402 473.823 267.902 472.989 269.067C472.395 269.896 471.463 270.457 470.812 271.247C470.161 272.037 469.872 273.289 470.636 273.983C471.124 274.335 471.719 274.53 472.332 274.537C473.852 274.707 475.611 274.802 476.677 273.759C477.259 273.19 477.542 272.347 478.252 271.929C478.517 271.823 478.753 271.663 478.943 271.459C479.236 271.017 478.77 270.434 478.246 270.275C477.722 270.115 477.145 270.19 476.618 270.039C476.091 269.887 475.608 269.325 475.878 268.87" fill="#E27612"/>
<path d="M450.987 217.196C450.189 217.38 449.364 217.426 448.549 217.332C447.196 217.096 446.142 216.128 445.05 215.334C442.453 213.456 439.296 212.409 436.032 212.342C433.063 212.289 430.067 213.053 427.151 212.52C427.342 213.526 428.248 214.28 429.216 214.729C430.183 215.177 431.251 215.403 432.223 215.842C433.779 216.553 435.014 217.773 435.701 219.278C436.014 219.972 436.211 220.727 436.685 221.333C437.654 222.571 439.491 222.843 441.113 222.742C443.227 222.61 445.435 222.032 447.401 222.78C448.906 223.352 449.983 224.603 451.239 225.575C452.495 226.547 454.265 227.269 455.707 226.567C454.209 226.107 452.905 225.203 451.985 223.989C451.066 222.775 450.579 221.314 450.596 219.818C452.011 219.942 456.086 219.894 455.867 217.612C455.681 215.677 452.202 216.987 450.987 217.196Z" fill="#E27612"/>
<path d="M432.479 232.935C432.73 231.627 434.104 230.472 433.676 229.206C433.38 228.33 432.311 227.898 431.343 227.876C430.374 227.854 429.423 228.128 428.455 228.154C427.825 228.122 427.193 228.131 426.564 228.18C424.642 228.48 423.458 230.392 421.647 231.072C420.546 231.486 419.308 231.407 418.163 231.693C415.563 232.342 413.918 234.674 412.101 236.555C409.164 239.58 405.339 241.699 401.12 242.636C399.641 242.961 398.052 243.169 396.877 244.08C395.321 245.288 394.938 247.357 394.592 249.237C393.636 254.427 392.174 259.522 390.226 264.456L396.399 265.204C397.573 265.347 398.789 265.486 399.92 265.156C400.742 264.861 401.52 264.468 402.236 263.984C404.985 262.363 408.063 261.309 411.268 260.888C412.885 260.678 414.58 260.639 416.097 261.21C417.614 261.78 418.916 263.074 419.043 264.619C419.699 264.425 420.398 264.404 421.066 264.558C421.733 264.713 422.344 265.036 422.833 265.494C423.8 266.43 424.433 267.629 424.643 268.925C424.806 269.727 424.968 270.687 425.752 271.024C426.391 271.298 427.125 271.003 427.824 270.95C430.198 270.769 432.167 273.397 434.5 272.945C437.002 272.459 437.616 268.901 440.057 268.189C441.459 267.779 443.425 268.277 444.097 267.039C444.688 265.948 443.508 264.688 443.63 263.466C443.78 261.961 445.649 261.323 447.09 260.681C452.058 258.467 454.415 252.118 452.008 247.436C450.581 244.661 447.775 242.477 447.257 239.43C446.858 237.085 447.831 234.35 446.257 232.504C445.456 231.565 444.1 231.047 443.623 229.927C443.323 229.222 443.444 228.421 443.282 227.676C443.121 226.931 442.436 226.152 441.661 226.345C439.412 226.906 438.695 233.503 437.491 235.106C435.66 237.542 431.903 235.937 432.479 232.935Z" fill="#E27612"/>
<path d="M390.908 219.688C390.14 219.484 389.301 219.282 388.564 219.575C387.828 219.867 387.398 220.894 387.989 221.403C392.613 221.232 397.265 221.062 401.849 221.659C407.131 222.345 412.359 224.047 417.664 223.547C414.634 222.698 411.553 222.019 408.439 221.514L403.245 220.572C401.852 220.295 400.444 220.088 399.027 219.953C396.064 219.721 393.822 220.464 390.908 219.688Z" fill="#E27612"/>
<path d="M395.537 204.397C395.154 204.367 394.678 204.341 394.48 204.654C394.29 204.954 394.507 205.349 394.405 205.685C394.266 206.144 393.633 206.261 393.134 206.198C392.636 206.136 392.097 205.986 391.655 206.215C391.431 206.36 391.263 206.57 391.176 206.814C391.088 207.058 391.086 207.322 391.171 207.567C391.351 208.053 391.643 208.495 392.026 208.861C392.679 209.642 393.423 210.351 394.244 210.973C395.833 212.087 397.986 212.624 398.987 214.241C399.128 214.554 399.345 214.832 399.62 215.051C400.101 215.34 400.728 215.12 401.245 214.895L403.058 214.108C403.385 213.997 403.677 213.808 403.906 213.561C404.32 213.027 404.066 212.268 403.718 211.693C403.37 211.118 402.925 210.523 403 209.864C403.133 208.688 404.725 208.239 405.379 207.233C406.039 206.219 405.609 204.913 405.685 203.723C405.774 202.332 406.695 200.523 405.214 199.483C403.955 198.6 402.752 199.416 401.848 200.391C399.942 202.448 399.041 204.675 395.537 204.397Z" fill="#E27612"/>
<path d="M406.545 183.611C407.164 184.737 408.455 185.409 409.13 186.505C409.862 187.693 409.779 189.228 410.572 190.38C411.387 191.561 413.026 192.189 413.483 193.533C413.982 195 412.85 196.783 413.752 198.065C413.92 198.275 414.132 198.449 414.375 198.576C414.618 198.704 414.886 198.782 415.162 198.807C415.439 198.831 415.717 198.8 415.98 198.717C416.244 198.633 416.486 198.499 416.691 198.322C417.072 197.929 417.275 197.41 417.258 196.876C417.242 196.343 417.006 195.836 416.602 195.465C416.068 195.003 415.301 194.803 414.856 194.263C414.623 193.952 414.469 193.594 414.403 193.217C414.16 192.131 414.199 191.005 414.517 189.936C414.636 189.664 414.666 189.365 414.604 189.077C414.403 188.523 413.613 188.484 413.058 188.227C411.799 187.643 411.829 185.956 412.05 184.641C411.903 185.516 408.621 184.028 408.277 183.533C407.594 182.548 407.966 180.649 407.831 179.561C406.357 180.235 405.788 182.235 406.545 183.611Z" fill="#E27612"/>
<path d="M373.479 200.93C372.873 200.286 371.96 199.612 371.148 200.001C370.528 200.297 370.358 201.111 370.601 201.728C370.897 202.328 371.352 202.843 371.922 203.224C373.615 204.55 375.438 205.746 376.914 207.287C379.557 210.044 380.957 213.765 383.83 216.305C384.408 216.894 385.173 217.287 386.008 217.424C386.845 217.498 387.785 216.989 387.882 216.196C387.961 215.542 387.481 214.958 387.012 214.473C385.896 213.321 384.674 212.259 383.62 211.054C383.133 210.592 382.827 209.985 382.753 209.335C382.748 208.686 383.371 208.007 384.032 208.168C383.227 207.973 382.63 206.699 381.449 206.46C380.462 206.26 380.223 206.84 379.048 206.362C376.806 205.449 375.048 202.598 373.479 200.93Z" fill="#E27612"/>
<path d="M426.14 138.228C425.497 138.047 424.865 137.832 424.247 137.586C422.583 137.112 420.381 138.273 420.603 139.909C420.75 140.996 421.816 141.729 422.404 142.672C423.277 144.071 423.044 145.844 422.585 147.41C422.473 147.895 422.259 148.354 421.956 148.758C421.532 149.186 421.026 149.532 420.465 149.777C418.218 150.974 416.236 152.572 414.629 154.485C414.454 154.661 414.333 154.879 414.277 155.115C414.197 155.668 414.782 156.07 415.113 156.531C415.847 157.554 415.316 158.932 415.389 160.168C415.378 160.343 415.414 160.518 415.494 160.676C415.574 160.834 415.695 160.97 415.845 161.071C416.288 161.284 416.812 160.921 417.052 160.509C417.849 159.139 417.249 156.94 418.743 156.28C419.025 156.155 419.368 156.102 419.556 155.866C419.855 155.493 419.567 154.939 419.718 154.492C419.946 153.821 420.912 153.791 421.654 153.821C422.932 153.871 424.209 153.71 425.428 153.344C425.906 153.236 426.341 152.997 426.677 152.657C427.124 152.128 427.084 151.375 426.995 150.702C426.548 147.349 425.429 144.107 423.699 141.152C425.011 141.311 426.439 141.449 427.571 140.8C428.205 140.436 428.965 139.349 428.651 138.609C428.154 137.439 427.255 138.424 426.14 138.228Z" fill="#E27612"/>
<path d="M257.924 156.674C258.081 157.474 258.235 158.316 257.959 159.086C257.683 159.856 256.815 160.5 255.995 160.264C255.359 160.08 254.991 159.473 254.54 159.01C252.027 156.434 246.358 157.925 244.806 154.739C244.172 153.438 244.603 151.88 244.171 150.508C243.898 149.714 243.356 149.029 242.629 148.56C241.902 148.091 241.031 147.865 240.154 147.917C239.354 148.026 238.575 148.247 237.843 148.572C232.935 150.438 227.783 151.662 222.528 152.209C221.529 152.267 220.541 152.437 219.585 152.717C217.428 153.46 215.953 155.359 214.904 157.298C213.855 159.236 213.08 161.334 211.674 163.056C210.195 164.866 208.124 166.133 206.191 167.504C205.447 167.96 204.827 168.577 204.383 169.304C203.964 170.121 203.987 171.071 204.02 171.978L204.415 183.005C204.466 184.423 204.53 185.892 205.198 187.161C206.033 188.746 207.682 189.784 208.826 191.184C209.994 192.623 210.602 194.401 210.548 196.217C210.523 196.946 210.447 197.81 211.046 198.268C211.41 198.493 211.836 198.609 212.27 198.603L227.978 199.823C230.742 200.038 233.804 200.391 235.608 202.39C236.459 203.334 237.143 204.69 238.448 204.792C239.007 204.835 239.551 204.617 240.111 204.575C241.522 204.469 242.762 205.486 243.545 206.607C244.729 208.314 245.267 210.354 245.07 212.39C244.941 213.668 244.524 214.911 244.434 216.192C244.092 221.067 248.444 225.303 248.528 230.188C248.578 233.061 247.141 235.746 245.741 238.293C248.001 241.545 246.15 245.875 247.05 249.676C247.904 253.282 251.071 256.106 251.86 259.725C252.221 261.382 252.242 263.422 253.781 264.275C254.456 264.588 255.205 264.73 255.955 264.688C260.478 264.739 264.95 263.772 269.004 261.867C270.907 260.971 272.879 259.632 273.211 257.64C273.479 256.034 272.621 254.236 273.494 252.837C274.523 251.188 277.16 251.318 278.674 250.05C281.131 247.993 279.215 244.07 280.211 241.107C281.105 238.443 284.185 237.028 285.712 234.638C286.312 233.61 286.743 232.5 286.99 231.348C287.689 228.594 288.125 225.786 288.291 222.958C288.331 221.239 288.465 219.524 288.69 217.818C290.336 208.109 300.445 201.607 303.728 192.279C304.041 191.389 304.188 190.202 303.354 189.698C302.859 189.474 302.297 189.418 301.764 189.54L294.523 190.407C293.624 190.515 292.67 190.615 291.844 190.26C291.018 189.906 290.426 188.914 290.864 188.16C292.094 186.045 289.564 183.372 288.44 181.204C285.413 175.367 281.809 169.816 277.675 164.627C277.411 164.36 277.245 164.018 277.203 163.654L279.259 163.719C278.565 161.355 277.42 158.768 275.001 157.904C273.639 157.416 272.13 157.585 270.675 157.66C266.511 157.876 262.046 157.279 257.924 156.674Z" fill="#E27612"/>
<path d="M270.679 103.408C271.769 104.507 272.99 105.672 274.567 105.863C277.352 106.202 279.354 103.467 280.629 101.092C280.676 101.697 280.97 102.262 281.449 102.664C281.928 103.067 282.553 103.277 283.191 103.249C283.879 103.139 284.535 102.895 285.119 102.533C290.637 99.67 296.818 98.1529 303.106 98.1182C303.045 97.6659 303.164 97.2084 303.437 96.834C303.711 96.4595 304.122 96.1947 304.589 96.0906C305.868 95.8499 307.019 96.8995 307.636 97.9897C308.253 99.08 308.637 100.344 309.617 101.16C310.597 101.976 312.494 101.94 312.881 100.759C313.253 99.624 312.008 98.6565 310.974 97.9876C309.94 97.3187 308.85 96.0806 309.546 95.0935C314.83 93.983 320.146 92.8683 325.552 92.6476C326.473 92.678 327.39 92.528 328.246 92.2069C329.071 91.8227 329.726 90.9506 329.505 90.1043C328.325 90.3677 327.089 90.2914 325.955 89.8853C324.821 89.4792 323.84 88.7615 323.137 87.824C330.639 87.2362 338.618 86.7351 345.266 90.0868C346.064 91.7131 341.998 93.0661 343.086 94.5328C343.433 95.0006 344.128 95.0555 344.731 95.0661C349.351 95.1476 353.997 95.2274 358.565 94.5651C360.234 94.3231 361.92 93.9814 363.596 94.1777C366.388 94.5046 368.775 96.2731 371.521 96.8497C372.639 97.0844 373.893 97.0924 374.835 96.4751C375.777 95.8577 376.182 94.4521 375.41 93.6496C377.996 91.2433 382.287 91.8397 385.698 92.9917C389.109 94.1438 392.341 96.0016 395.951 96.2584C398.54 96.4425 401.165 95.7813 403.724 96.2016C405.331 96.4657 406.827 97.1448 408.399 97.562C411.37 98.3511 414.514 98.1845 417.599 98.2225C425.472 98.3232 433.258 99.7923 440.573 102.557C441.524 102.851 442.396 103.34 443.127 103.99C443.807 104.682 444.155 105.757 443.697 106.599L436.138 105.55C436.851 106.881 438.693 107.108 440.189 107.567C441.686 108.027 443.237 109.596 442.338 110.82C440.717 110.33 439.247 111.869 438.428 113.285C437.61 114.702 436.612 116.397 434.913 116.484C433.391 116.561 431.551 115.331 430.56 116.429C431.93 118.07 433.103 119.851 434.057 121.739C435.037 123.677 435.735 126.119 434.411 127.863C434.202 128.174 433.886 128.407 433.517 128.521C432.436 128.781 431.733 127.524 430.957 126.763C429.98 125.804 428.502 125.532 427.179 125.082C425.855 124.632 424.461 123.747 424.357 122.415C424.293 121.587 424.753 120.817 425.093 120.052C425.663 118.762 425.912 117.364 425.821 115.967C425.747 114.844 425.415 113.675 424.566 112.89C423.716 112.105 422.249 111.856 421.336 112.575C420.911 112.911 420.57 113.447 420.017 113.467C419.04 113.503 418.29 111.886 417.504 112.438C417.596 113.026 417.468 113.626 417.141 114.133C414.796 116.07 411.194 115.251 408.171 115.935C406.733 116.325 405.357 116.896 404.078 117.632C403.6 117.826 403.193 118.15 402.908 118.564C402.531 119.26 402.947 120.152 403.612 120.615C404.318 121.026 405.11 121.283 405.933 121.367C409.618 122.03 413.358 123.056 416.268 125.304C419.177 127.552 421.085 131.267 420.165 134.72L412.897 128.126C413.173 130.895 413.329 133.671 413.367 136.455C413.414 136.999 413.335 137.545 413.136 138.057C412.618 139.144 411.214 139.509 409.983 139.749C409.641 139.811 409.316 139.941 409.031 140.13C408.745 140.32 408.505 140.564 408.325 140.848C408.146 141.132 408.033 141.448 407.992 141.777C407.95 142.105 407.983 142.438 408.087 142.754C408.524 144.107 409.615 145.162 410.613 146.213C411.611 147.265 412.593 148.459 412.724 149.869C412.855 151.279 411.734 152.869 410.247 152.771C409.12 152.696 408.283 151.738 407.803 150.767C407.322 149.796 407.036 148.714 406.313 147.889C404.126 145.392 399.215 146.462 397.256 143.8C396.756 144.338 396.41 144.988 396.25 145.688C396.089 146.389 396.12 147.117 396.339 147.803C397.251 147.261 398.498 147.765 399.183 148.552C399.868 149.339 400.191 150.348 400.729 151.232C401.454 152.425 402.609 153.483 402.71 154.857C402.684 155.377 402.693 155.898 402.738 156.416C402.918 157.249 403.659 157.847 404.173 158.543C405.369 160.162 405.31 162.387 404.539 164.225C403.768 166.062 402.384 167.598 401.012 169.086C398.616 171.686 396.172 174.271 393.332 176.431C392.521 177.047 391.656 177.653 391.152 178.514C390.647 179.375 390.621 180.585 391.397 181.24C390.842 181.266 389.846 181.525 389.291 181.552C389.096 179.438 389.054 177.314 389.165 175.194C386.974 174.196 384.616 176.87 384.899 179.161C385.182 181.452 386.927 183.291 388.169 185.273C389.078 186.723 389.753 188.413 389.45 190.075C389.147 191.737 387.584 193.271 385.814 193.124C382.999 192.891 381.821 189.053 379.034 188.614C378.788 188.559 378.53 188.584 378.3 188.683C377.886 188.899 377.814 189.425 377.791 189.872C377.677 192.07 377.578 194.354 378.481 196.38C379.803 199.344 383.217 201.833 382.501 204.979C378.643 203.276 376.637 199.168 375.726 195.222C374.816 191.276 374.664 187.134 373.031 183.403C371.792 184.912 369.186 183.665 368.054 182.082C366.98 180.582 366.319 178.846 365.277 177.325C364.235 175.804 362.639 174.443 360.731 174.359C358.73 174.272 356.994 175.575 355.468 176.807C354.213 177.82 352.925 178.873 352.191 180.274C351.124 182.311 351.403 184.714 351.352 186.989C351.296 189.449 350.747 192.044 348.981 193.845C347.216 195.646 343.957 196.273 342.009 194.65C340.992 193.803 340.5 192.537 340.061 191.322C337.948 185.464 336.187 179.497 334.789 173.449C334.462 174.829 333.185 176.609 331.966 175.795C331.692 175.577 331.47 175.306 331.315 175C329.04 171.339 324.828 169.143 320.571 167.826C316.315 166.51 311.837 165.896 307.628 164.449C305.269 163.638 303.016 162.572 300.913 161.273C300.377 162.021 300.064 162.892 300.008 163.795C299.951 164.698 300.152 165.599 300.591 166.402C301.524 167.972 303.637 168.88 305.446 168.331C306.38 168.048 307.17 167.432 308.097 167.128C309.024 166.823 310.269 166.973 310.675 167.821C311.063 168.633 310.476 169.615 310.767 170.463C311.21 171.755 313.262 171.854 313.979 173.029C314.512 173.903 314.073 175.064 313.311 175.77C312.549 176.475 311.533 176.862 310.603 177.354C307.585 178.947 305.439 181.667 302.801 183.784C300.164 185.9 296.443 187.445 293.299 186.088C294.049 182.485 289.529 179.84 288.698 176.254C288.424 175.074 288.566 173.82 288.175 172.67C287.61 171.004 286.054 169.859 284.777 168.597C283.229 167.049 282.022 165.223 281.229 163.226C280.436 161.229 280.073 159.101 280.16 156.968C280.229 155.486 280.516 153.98 280.16 152.535C279.804 151.09 278.545 149.692 276.984 149.758C273.419 149.907 268.928 150.159 267.057 147.273C266.39 146.243 266.099 144.735 267.064 143.946C267.745 143.389 268.75 143.442 269.644 143.525L277.677 144.275C279.556 144.451 281.587 144.596 283.199 143.663C284.811 142.731 285.509 140.255 284.017 139.158C282.926 138.356 280.972 138.4 280.655 137.125C280.391 136.063 281.628 134.859 280.96 133.972C280.48 133.336 279.403 133.512 278.75 133.989C278.097 134.466 277.624 135.163 276.893 135.524C275.611 136.158 274.08 135.555 272.701 135.145C271.322 134.736 269.473 134.701 268.804 135.917C268.056 137.277 269.468 139.059 268.725 140.422C267.744 142.224 264.42 141.198 263.041 142.748C261.459 144.527 264.118 147.179 263.584 149.451C262.903 149.771 262.146 149.918 261.387 149.878C260.629 149.837 259.894 149.611 259.255 149.22C258.626 148.814 258.126 148.254 257.806 147.599C257.486 146.945 257.359 146.22 257.438 145.502C257.57 144.48 258.131 143.437 257.755 142.471C257.451 141.69 256.625 141.225 255.858 140.822L248.052 136.727C247.327 138.003 248.243 139.586 249.389 140.545C250.535 141.503 251.97 142.226 252.723 143.487C253.199 144.362 253.306 145.376 253.021 146.322C252.737 147.268 252.083 148.076 251.192 148.58C251.081 148.653 250.954 148.702 250.82 148.725C250.687 148.747 250.55 148.741 250.418 148.708C250.294 148.639 250.185 148.546 250.099 148.436C250.013 148.326 249.951 148.201 249.917 148.067C248.539 144.721 246.471 141.421 243.166 139.673C239.86 137.925 235.109 138.284 232.941 141.229C232.426 141.929 232.081 142.726 231.632 143.465C229.249 147.394 224.14 149.255 219.366 149.134C218.899 149.158 218.435 149.054 218.028 148.835C217.257 148.329 217.292 147.256 217.41 146.372L217.911 142.624C218.011 141.872 218.157 141.04 218.784 140.57C219.669 139.908 220.944 140.326 222.071 140.31C222.924 140.272 223.744 139.986 224.42 139.491C225.096 138.995 225.596 138.314 225.851 137.54C226.078 136.759 226.077 135.933 225.846 135.152C225.616 134.371 225.166 133.664 224.544 133.108C224.028 132.648 223.335 132.07 223.608 131.449C223.716 131.278 223.864 131.131 224.039 131.019C224.214 130.907 224.412 130.833 224.621 130.802C226.644 130.244 228.781 130.098 230.77 129.44C232.759 128.781 234.688 127.435 235.159 125.485C235.304 124.888 235.369 124.164 235.935 123.868C236.218 123.754 236.523 123.695 236.831 123.694C237.909 123.549 238.891 123.025 239.583 122.226C240.275 121.427 240.627 120.412 240.57 119.379C241.523 118.746 242.859 119.212 243.781 119.884C244.703 120.557 245.518 121.446 246.64 121.736C248.731 122.276 250.752 120.518 252.919 120.51C253.831 120.507 254.774 120.813 255.632 120.519C256.501 120.222 257.02 119.4 257.687 118.793C258.354 118.186 259.525 117.816 260.141 118.47L259.616 114.78C260.673 115.034 261.774 115.07 262.846 114.886C263.918 114.701 264.937 114.302 265.833 113.713L259.053 111.538C258.817 111.482 258.599 111.371 258.419 111.216C257.926 110.712 258.416 109.927 258.817 109.354C259.776 107.983 259.937 105.726 258.36 105.044C257.284 104.578 256.048 105.137 255.015 105.684L250.067 108.304C249.91 109.197 251.06 109.703 251.773 110.305C252.204 110.669 252.509 111.148 252.648 111.68C252.787 112.211 252.754 112.77 252.552 113.284C252.35 113.797 251.99 114.24 251.518 114.556C251.046 114.871 250.484 115.043 249.907 115.05C250.233 115.452 250.46 115.919 250.57 116.415C250.68 116.912 250.671 117.426 250.544 117.918L247.215 118.146C246.841 118.217 246.453 118.145 246.135 117.946C245.779 117.645 245.827 117.119 245.744 116.674C245.545 115.599 244.437 114.845 243.305 114.652C242.174 114.459 241.017 114.707 239.896 114.951C239.421 115.114 238.898 115.102 238.431 114.919C238.163 114.754 237.96 114.51 237.851 114.224C237.36 113.094 237.819 111.764 238.608 110.798C239.397 109.831 240.477 109.124 241.447 108.319C243.766 106.386 245.47 103.877 246.366 101.074C248.199 100.345 250.096 99.3538 251.929 98.6246C254.755 97.2662 257.923 96.6832 261.079 96.9413L267.286 97.0539C269.124 97.0872 271.011 97.1299 272.71 97.7951C274.41 98.4604 275.903 99.8992 276.02 101.641C276.055 101.838 276.037 102.041 275.968 102.229C275.898 102.418 275.779 102.587 275.622 102.72C275.382 102.844 275.11 102.903 274.837 102.888C273.123 102.945 272.393 103.351 270.679 103.408Z" fill="#E27612"/>
<path d="M221.205 121.879C221.448 121.661 221.622 121.384 221.71 121.078C221.797 120.772 221.794 120.449 221.7 120.144C221.11 119.928 220.468 119.873 219.847 119.984C219.225 120.096 218.649 120.37 218.183 120.775C217.815 121.128 217.498 121.526 217.24 121.958C216.425 123.222 215.703 124.731 216.176 126.143C216.214 126.297 216.285 126.443 216.383 126.57C216.482 126.698 216.606 126.806 216.749 126.888C216.961 126.968 217.189 127.002 217.417 126.987C218.315 126.986 219.213 126.933 220.105 126.83C220.653 126.766 221.289 126.619 221.5 126.136C221.779 125.5 221.105 124.78 221.301 124.117C221.431 123.82 221.626 123.554 221.875 123.337C221.998 123.227 222.093 123.092 222.152 122.942C222.211 122.792 222.232 122.631 222.213 122.471C222.134 122.16 221.632 121.984 221.452 122.254" fill="#E27612"/>
<path d="M225.864 116.143C225.066 115.969 224.243 115.92 223.429 115.998C223.248 115.993 223.07 116.032 222.909 116.11C222.754 116.219 222.642 116.374 222.59 116.55C222.418 117.074 222.46 117.641 222.708 118.137C222.956 118.634 223.392 119.023 223.929 119.228C224.222 119.291 224.502 119.398 224.76 119.545C225.449 120.052 225.01 121.089 225.14 121.908C225.287 122.827 226.224 123.599 226.052 124.514C225.917 125.235 225.106 125.806 225.236 126.528C225.373 127.284 226.383 127.512 227.189 127.572C227.656 127.65 228.136 127.597 228.572 127.422C229.009 127.138 229.32 126.71 229.445 126.221C229.775 125.289 229.913 124.306 229.853 123.325C229.85 122.878 229.732 122.439 229.509 122.046C229.267 121.734 228.998 121.442 228.705 121.172C227.162 119.468 228.787 116.925 225.864 116.143Z" fill="#E27612"/>
<path opacity="0.8" d="M428.781 249.657C428.781 249.657 310.594 185.239 259.712 197.445C259.712 197.445 151.88 208.463 139.383 232.705C139.383 232.705 105.105 130.993 92.6083 127.603" stroke="white" stroke-width="2" stroke-miterlimit="10"/>
<path opacity="0.8" d="M139.383 232.705C159.2 182.527 337.73 126.925 337.73 126.925C312.379 133.027 259.712 197.445 259.712 197.445C259.712 197.445 148.31 120.483 92.6083 127.603C92.6083 127.603 337.909 135.231 428.781 249.657" stroke="white" stroke-width="2" stroke-miterlimit="10"/>
<path d="M92.6083 132.519C95.4677 132.519 97.7857 130.318 97.7857 127.603C97.7857 124.888 95.4677 122.687 92.6083 122.687C89.7489 122.687 87.4309 124.888 87.4309 127.603C87.4309 130.318 89.7489 132.519 92.6083 132.519Z" fill="white"/>
<path d="M139.383 237.621C142.243 237.621 144.561 235.42 144.561 232.705C144.561 229.99 142.243 227.789 139.383 227.789C136.524 227.789 134.206 229.99 134.206 232.705C134.206 235.42 136.524 237.621 139.383 237.621Z" fill="white"/>
<path d="M337.73 131.841C340.589 131.841 342.907 129.64 342.907 126.925C342.907 124.21 340.589 122.009 337.73 122.009C334.871 122.009 332.553 124.21 332.553 126.925C332.553 129.64 334.871 131.841 337.73 131.841Z" fill="white"/>
<path d="M428.781 254.573C431.64 254.573 433.958 252.372 433.958 249.657C433.958 246.942 431.64 244.741 428.781 244.741C425.921 244.741 423.603 246.942 423.603 249.657C423.603 252.372 425.921 254.573 428.781 254.573Z" fill="white"/>
<path d="M259.713 202.361C262.572 202.361 264.89 200.16 264.89 197.445C264.89 194.73 262.572 192.529 259.713 192.529C256.853 192.529 254.535 194.73 254.535 197.445C254.535 200.16 256.853 202.361 259.713 202.361Z" fill="white"/>
<path d="M154.801 77.5037C154.801 101.891 130.811 121.969 100.801 121.969C70.7914 121.969 46.8014 101.891 46.8014 77.5037C46.8014 53.1162 70.7914 33.0389 100.801 33.0389C130.811 33.0389 154.801 53.1162 154.801 77.5037Z" fill="var(--background)" stroke="white" stroke-width="2"/>
<g clip-path="url(#clip1_141_4)">
<path d="M68.1193 111.384C68.1859 111.477 68.2551 111.569 68.3261 111.661H74.3001C74.2549 111.582 74.2024 111.489 74.1415 111.384C73.1547 109.646 70.2337 104.447 67.5224 99.0585C64.6097 93.2673 61.9353 87.2566 62.1605 85.0812C62.0907 85.5715 60.0744 100.529 68.1193 111.384Z" fill="#E27612"/>
<path d="M87.9593 90.4977C87.9404 90.566 87.9271 90.6357 87.9194 90.7061L82.167 93.6552L80.8313 92.8341L79.2983 94.6398L81.5182 96.3178C81.6975 96.4533 81.9171 96.5284 82.1439 96.5318C82.3706 96.5352 82.5924 96.4667 82.7759 96.3366L88.7565 92.0954C89.0144 92.2001 89.2988 92.2257 89.5719 92.1688C89.8451 92.1119 90.0939 91.9751 90.2855 91.7767C90.4771 91.5784 90.6022 91.3277 90.6443 91.0582C90.6864 90.7887 90.6434 90.5131 90.5211 90.268C90.3989 90.0229 90.203 89.8199 89.9597 89.6862C89.7163 89.5524 89.437 89.4941 89.1589 89.519C88.8808 89.5439 88.6171 89.6509 88.4028 89.8258C88.1885 90.0006 88.0338 90.235 87.9593 90.4977Z" fill="#9E616A"/>
<path d="M94.8948 110.48L96.0483 109.756L93.7361 105.069L92.0338 106.138L94.8948 110.48Z" fill="#9E616A"/>
<path d="M94.3584 110.298L96.6298 108.872C97.0137 108.631 97.4801 108.548 97.9261 108.643C98.3722 108.737 98.7614 109.001 99.0083 109.376L99.0386 109.422L95.3196 111.757L94.3584 110.298Z" fill="white"/>
<path d="M78.2773 102.429L87.1309 96.8957C87.1309 96.8957 88.7577 96.7424 89.734 98.6207L95.6305 106.889L93.1148 108.551L86.5717 101.918L82.0818 106.253C82.0818 106.253 88.6969 105.194 88.4732 109.452C88.2957 112.832 79.2419 111.673 75.5121 111.05C74.8037 110.937 74.1294 110.674 73.5371 110.278C72.9448 109.882 72.449 109.364 72.0849 108.76C71.6848 108.083 71.4698 107.314 71.8058 106.587C72.7018 104.648 78.2773 102.429 78.2773 102.429Z" fill="white"/>
<path d="M73.8881 107.054L71.3367 106.55L72.0637 94.3253L74.9995 90.8151L76.7486 90.5128C77.2701 90.4205 77.808 90.5228 78.2558 90.7994C78.7036 91.076 79.0286 91.5067 79.1664 92.0062L79.9373 94.7556C81.2454 96.9176 79.4129 99.4245 79.2439 99.6473L79.3391 103.439L73.8881 107.054Z" fill="#E27612"/>
<path d="M76.2639 91.2939L76.4258 90.7349C76.4258 90.7349 78.1826 89.4708 80.8671 92.7465L79.5808 94.9849L76.7844 94.8757L76.2639 91.2939Z" fill="#E27612"/>
<path d="M80.3052 86.9436C80.8029 88.9352 78.8411 89.0832 76.5139 89.6373C74.1867 90.1915 72.3755 90.942 71.8778 88.9503C71.3801 86.9587 71.4194 83.2089 74.7116 82.425C78.1172 81.6141 79.8075 84.9519 80.3052 86.9436Z" fill="white"/>
<path d="M75.8074 89.7185C77.4192 89.7185 78.7259 88.443 78.7259 86.8695C78.7259 85.2961 77.4192 84.0205 75.8074 84.0205C74.1955 84.0205 72.8888 85.2961 72.8888 86.8695C72.8888 88.443 74.1955 89.7185 75.8074 89.7185Z" fill="#9E616A"/>
<path d="M72.4635 87.3781L73.585 87.1111L73.7418 85.6409L74.1787 86.9697L74.7147 86.842L74.8062 85.9845L75.061 86.7596L79.0438 85.8112C78.8496 85.0341 78.3472 84.3641 77.647 83.9487C76.9468 83.5332 76.1062 83.4063 75.3101 83.5959L74.7329 83.7334C74.3387 83.8272 73.9673 83.9959 73.64 84.2299C73.3126 84.4639 73.0356 84.7585 72.8249 85.0969C72.6142 85.4354 72.4738 85.811 72.4118 86.2024C72.3498 86.5938 72.3673 86.9933 72.4635 87.3781Z" fill="white"/>
<path d="M80.8057 100.958C80.7355 100.976 80.667 100.999 80.6005 101.027L75.1251 97.6127L75.1934 96.0733L72.8269 95.6689L72.4346 98.3827C72.4029 98.6019 72.4449 98.8253 72.5543 99.0192C72.6637 99.2132 72.8347 99.3672 73.0414 99.4583L79.7795 102.426C79.8142 102.696 79.9324 102.95 80.1184 103.154C80.3045 103.357 80.5496 103.5 80.821 103.564C81.0925 103.628 81.3775 103.61 81.6381 103.512C81.8988 103.414 82.1227 103.241 82.2801 103.016C82.4375 102.791 82.521 102.524 82.5194 102.251C82.5178 101.979 82.4312 101.713 82.2712 101.49C82.1111 101.266 81.8851 101.096 81.6234 101.001C81.3616 100.906 81.0764 100.891 80.8057 100.958Z" fill="#9E616A"/>
<path d="M75.4424 91.3731L75.0298 90.8653C75.0298 90.8653 73.3729 90.3444 72.478 92.5281C71.5832 94.7119 72.4221 96.8411 72.4221 96.8411L76.337 97.1686L76.6167 93.62L75.4424 91.3731Z" fill="#E27612"/>
<path d="M119.004 59.3626H149.575V69.1594H148.417V71.7216L145.792 69.1594H119.004V59.3626Z" fill="#E27612"/>
<path d="M148.726 60.3166H119.853V68.154H148.726V60.3166Z" fill="white"/>
<path d="M136.076 62.6048H122.175V63.0166H136.076V62.6048Z" fill="#E27612"/>
<path d="M146.404 64.0294H122.175V64.4412H146.404V64.0294Z" fill="#E27612"/>
<path d="M146.38 65.454H122.175V65.8658H146.38V65.454Z" fill="#E27612"/>
<path d="M131.303 44.1629H100.732V53.9596H101.89V56.5219L104.515 53.9596H131.303V44.1629Z" fill="#E27612"/>
<path d="M130.454 45.1169H101.581V52.9543H130.454V45.1169Z" fill="white"/>
<path d="M118.036 47.4804H104.135V47.8923H118.036V47.4804Z" fill="#E27612"/>
<path d="M128.364 48.9051H104.135V49.3169H128.364V48.9051Z" fill="#E27612"/>
<path d="M128.34 50.3297H104.135V50.7415H128.34V50.3297Z" fill="#E27612"/>
<path d="M93.4563 88.3191H93.4022V86.8719C93.4022 86.7619 93.38 86.653 93.3369 86.5513C93.2937 86.4497 93.2305 86.3574 93.1509 86.2796C93.0712 86.2018 92.9766 86.1401 92.8725 86.098C92.7684 86.0559 92.6568 86.0342 92.5441 86.0342H89.403C89.2903 86.0342 89.1787 86.0559 89.0746 86.098C88.9705 86.1401 88.8759 86.2018 88.7962 86.2796C88.7166 86.3574 88.6534 86.4497 88.6102 86.5513C88.5671 86.6529 88.5449 86.7619 88.5449 86.8719V94.8117C88.5449 94.9217 88.5671 95.0306 88.6102 95.1322C88.6534 95.2338 88.7166 95.3262 88.7962 95.404C88.8759 95.4817 88.9705 95.5434 89.0746 95.5855C89.1787 95.6276 89.2903 95.6493 89.403 95.6493H92.5441C92.6568 95.6493 92.7684 95.6276 92.8725 95.5855C92.9766 95.5434 93.0712 95.4817 93.1508 95.404C93.2305 95.3262 93.2937 95.2338 93.3369 95.1322C93.38 95.0306 93.4022 94.9217 93.4022 94.8117V89.3493H93.4563V88.3191Z" fill="white"/>
<path d="M92.5786 86.2522H92.1686C92.1875 86.2973 92.1947 86.3463 92.1896 86.3947C92.1845 86.4432 92.1673 86.4897 92.1394 86.5302C92.1116 86.5706 92.0739 86.6038 92.0299 86.6267C91.9858 86.6496 91.9367 86.6616 91.8867 86.6616H90.0873C90.0373 86.6616 89.9882 86.6496 89.9441 86.6267C89.9001 86.6038 89.8624 86.5706 89.8346 86.5302C89.8067 86.4897 89.7895 86.4432 89.7844 86.3947C89.7793 86.3463 89.7865 86.2973 89.8054 86.2522H89.4224C89.2525 86.2522 89.0895 86.3181 88.9693 86.4354C88.8491 86.5527 88.7816 86.7118 88.7816 86.8777V94.8058C88.7816 94.888 88.7982 94.9693 88.8304 95.0452C88.8626 95.1211 88.9098 95.1901 88.9693 95.2482C89.0288 95.3062 89.0994 95.3523 89.1772 95.3838C89.2549 95.4152 89.3383 95.4314 89.4224 95.4314H92.5786C92.6628 95.4314 92.7461 95.4152 92.8239 95.3838C92.9016 95.3523 92.9722 95.3062 93.0317 95.2482C93.0913 95.1901 93.1385 95.1211 93.1707 95.0452C93.2029 94.9693 93.2194 94.888 93.2194 94.8058V86.8777C93.2194 86.7956 93.2029 86.7142 93.1707 86.6383C93.1385 86.5624 93.0913 86.4935 93.0317 86.4354C92.9722 86.3773 92.9016 86.3312 92.8239 86.2998C92.7461 86.2683 92.6628 86.2522 92.5786 86.2522Z" fill="white"/>
<path d="M127.49 73.0714H89.9504V85.1014H91.3724V88.2476L94.5955 85.1014H127.49V73.0714Z" fill="white"/>
<path d="M91.2533 88.5284V85.2177H89.8313V72.9551H127.609V85.2177H94.6448L91.2533 88.5284ZM90.0696 84.9851H91.4916V87.9669L94.5461 84.9851H127.371V73.1877H90.0696L90.0696 84.9851Z" fill="white"/>
<path d="M111.199 77.1453H94.1287V77.651H111.199V77.1453Z" fill="#E27612"/>
<path d="M123.881 78.8946H94.1287V79.4003H123.881V78.8946Z" fill="#E27612"/>
<path d="M123.852 80.644H94.1287V81.1496H123.852V80.644Z" fill="#E27612"/>
<path d="M107.281 111.855H61.885C61.8534 111.855 61.8231 111.843 61.8008 111.821C61.7784 111.799 61.7659 111.769 61.7659 111.739C61.7659 111.708 61.7784 111.678 61.8008 111.656C61.8231 111.635 61.8534 111.622 61.885 111.622H107.281C107.312 111.622 107.343 111.635 107.365 111.656C107.387 111.678 107.4 111.708 107.4 111.739C107.4 111.769 107.387 111.799 107.365 111.821C107.343 111.843 107.312 111.855 107.281 111.855Z" fill="white"/>
</g>
<path d="M430.317 288.513C430.317 311.731 406.373 330.929 376.317 330.929C346.26 330.929 322.317 311.731 322.317 288.513C322.317 265.295 346.26 246.097 376.317 246.097C406.373 246.097 430.317 265.295 430.317 288.513Z" fill="var(--background)" stroke="white" stroke-width="2"/>
<g clip-path="url(#clip2_141_4)">
<path d="M345.837 296.024C345.771 295.927 345.684 295.845 345.581 295.785C345.479 295.724 345.364 295.685 345.245 295.672C345.126 295.659 345.005 295.671 344.892 295.708C344.778 295.745 344.674 295.806 344.587 295.886L341.996 294.589L342.157 296.051L344.593 297.059C344.741 297.192 344.935 297.267 345.137 297.27C345.339 297.274 345.535 297.205 345.688 297.078C345.842 296.95 345.941 296.773 345.969 296.579C345.996 296.384 345.949 296.187 345.837 296.024Z" fill="#A0616A"/>
<path d="M343.535 296.613C343.488 296.634 343.437 296.645 343.385 296.645C343.334 296.646 343.283 296.636 343.235 296.616L340.774 295.58C339.933 295.226 339.253 294.587 338.86 293.783L337.566 291.133C337.471 291.014 337.401 290.878 337.359 290.732C337.318 290.587 337.307 290.435 337.326 290.285C337.346 290.136 337.395 289.991 337.472 289.86C337.549 289.729 337.652 289.614 337.774 289.522C337.897 289.429 338.038 289.361 338.187 289.321C338.337 289.281 338.494 289.27 338.648 289.289C338.802 289.308 338.951 289.357 339.086 289.431C339.221 289.506 339.34 289.606 339.435 289.725L341.709 293.82L343.809 295.359C343.869 295.403 343.913 295.464 343.937 295.534C343.96 295.604 343.96 295.679 343.938 295.749L343.732 296.395C343.71 296.464 343.667 296.525 343.608 296.57C343.585 296.587 343.561 296.601 343.535 296.613Z" fill="#E27612"/>
<path d="M337.509 288.017C338.616 288.017 339.513 287.146 339.513 286.072C339.513 284.998 338.616 284.127 337.509 284.127C336.403 284.127 335.506 284.998 335.506 286.072C335.506 287.146 336.403 288.017 337.509 288.017Z" fill="#A0616A"/>
<path d="M338.321 311.581L339.321 311.581L339.797 307.837L338.321 307.837L338.321 311.581Z" fill="#A0616A"/>
<path d="M341.25 312.482L338.107 312.483L338.107 311.304L340.036 311.304C340.358 311.304 340.667 311.428 340.895 311.649C341.122 311.87 341.25 312.17 341.25 312.482Z" fill="white"/>
<path d="M335.058 311.581L336.058 311.581L336.534 307.837L335.057 307.837L335.058 311.581Z" fill="#A0616A"/>
<path d="M337.987 312.482L334.843 312.483L334.843 311.304L336.772 311.304C337.094 311.304 337.403 311.428 337.631 311.649C337.859 311.87 337.987 312.17 337.987 312.482Z" fill="white"/>
<path d="M334.708 310.51C334.674 310.471 334.648 310.426 334.633 310.378C334.618 310.329 334.614 310.278 334.621 310.228L336.372 297.482L340.723 298.199L341.187 297.929L339.986 310.022C339.976 310.104 339.938 310.179 339.877 310.237C339.816 310.294 339.737 310.329 339.652 310.336L338.335 310.442C338.282 310.447 338.23 310.44 338.18 310.423C338.131 310.405 338.086 310.378 338.048 310.342C338.01 310.307 337.981 310.264 337.962 310.216C337.943 310.169 337.935 310.118 337.938 310.067L338.279 304.308C338.279 304.298 338.276 304.288 338.27 304.281C338.264 304.273 338.255 304.268 338.245 304.266C338.235 304.265 338.224 304.267 338.216 304.272C338.207 304.277 338.201 304.286 338.199 304.295L336.511 310.368C336.49 310.443 336.444 310.51 336.38 310.558C336.316 310.605 336.237 310.631 336.157 310.631H334.985C334.932 310.631 334.881 310.62 334.833 310.599C334.785 310.578 334.743 310.548 334.708 310.51Z" fill="white"/>
<path d="M337.722 298.374C337.672 298.33 337.607 298.305 337.54 298.302C337.473 298.299 337.407 298.32 337.353 298.359L336.483 299.016C336.436 299.052 336.38 299.076 336.321 299.086C336.262 299.096 336.201 299.092 336.144 299.074C336.087 299.056 336.035 299.024 335.994 298.982C335.952 298.941 335.921 298.889 335.905 298.833C335.478 297.383 334.512 293.733 334.75 291.164C334.885 289.708 336.181 288.601 337.638 288.694C338.635 288.759 339.291 289.316 339.587 290.352C340.315 292.895 341.115 297.561 341.268 298.47C341.28 298.54 341.27 298.613 341.239 298.678C341.208 298.743 341.157 298.797 341.094 298.833C340.682 299.073 340.212 299.201 339.732 299.205C339.151 299.205 338.455 299.009 337.722 298.374Z" fill="#E27612"/>
<path d="M338.05 299.279C338.059 299.163 338.043 299.046 338.001 298.937C337.959 298.828 337.893 298.729 337.808 298.647C337.723 298.566 337.62 298.503 337.507 298.464C337.394 298.425 337.273 298.411 337.154 298.422L335.941 295.849L335.138 297.096L336.413 299.348C336.445 299.541 336.55 299.716 336.707 299.84C336.863 299.964 337.061 300.027 337.263 300.019C337.465 300.01 337.656 299.93 337.801 299.794C337.946 299.658 338.035 299.474 338.05 299.279Z" fill="#A0616A"/>
<path d="M335.864 298.363C335.814 298.351 335.767 298.33 335.726 298.299C335.685 298.269 335.651 298.23 335.626 298.186L334.349 295.897C333.912 295.115 333.783 294.205 333.985 293.337L334.653 290.477C334.653 290.326 334.684 290.177 334.745 290.038C334.805 289.899 334.892 289.773 335.003 289.667C335.113 289.56 335.244 289.476 335.388 289.419C335.532 289.362 335.686 289.333 335.841 289.334C335.997 289.335 336.15 289.365 336.294 289.424C336.437 289.482 336.567 289.567 336.676 289.674C336.785 289.782 336.872 289.909 336.931 290.048C336.989 290.188 337.019 290.338 337.018 290.488L336.204 295.072L336.877 297.541C336.896 297.611 336.893 297.686 336.866 297.755C336.84 297.824 336.793 297.883 336.731 297.925L336.158 298.31C336.097 298.351 336.024 298.373 335.949 298.373C335.92 298.373 335.892 298.37 335.864 298.363Z" fill="#E27612"/>
<path opacity="0.2" d="M336.855 292.421L336.121 295.43L337.182 297.963L336.448 295.509L336.855 292.421Z" fill="black"/>
<path d="M336.366 287.671C336.188 287.674 336.011 287.643 335.845 287.579C335.772 287.552 335.696 287.53 335.623 287.502C334.98 287.261 334.557 286.597 334.541 285.928C334.526 285.259 334.883 284.61 335.413 284.182C335.943 283.754 336.63 283.535 337.317 283.484C338.057 283.429 338.891 283.612 339.305 284.21C339.415 284.369 339.492 284.562 339.427 284.755C339.407 284.813 339.372 284.865 339.326 284.906C339.141 285.065 338.957 284.945 338.768 284.935C338.509 284.92 338.277 285.123 338.193 285.362C338.11 285.6 338.146 285.862 338.214 286.105C338.265 286.251 338.298 286.403 338.31 286.557C338.316 286.634 338.301 286.712 338.267 286.782C338.233 286.852 338.181 286.912 338.116 286.957C337.955 287.052 337.742 286.997 337.58 286.903C337.418 286.808 337.279 286.676 337.104 286.606C336.929 286.537 336.694 286.552 336.592 286.707C336.56 286.763 336.538 286.824 336.527 286.888C336.436 287.291 336.457 287.268 336.366 287.671Z" fill="white"/>
<path d="M395.68 274.199H346.157C345.968 274.199 345.788 274.272 345.654 274.401C345.521 274.53 345.446 274.706 345.446 274.889V307.454C345.446 307.637 345.521 307.813 345.654 307.942C345.788 308.072 345.968 308.145 346.157 308.145H395.68C395.783 308.145 395.885 308.123 395.978 308.081C396.072 308.039 396.155 307.978 396.221 307.903C396.227 307.897 396.232 307.89 396.237 307.884C396.279 307.833 396.314 307.777 396.339 307.716C396.375 307.633 396.393 307.544 396.393 307.454V287.182H396.19V307.454C396.19 307.551 396.16 307.645 396.106 307.725C396.057 307.796 395.991 307.853 395.913 307.893C395.841 307.929 395.761 307.948 395.68 307.948H346.157C346.022 307.948 345.893 307.895 345.798 307.803C345.703 307.711 345.649 307.585 345.649 307.454V274.889C345.649 274.758 345.703 274.633 345.798 274.54C345.893 274.448 346.022 274.396 346.157 274.396H395.68C395.815 274.396 395.945 274.448 396.04 274.54C396.136 274.633 396.189 274.758 396.19 274.889V279.265H396.393V274.889C396.392 274.706 396.317 274.53 396.184 274.401C396.05 274.271 395.869 274.199 395.68 274.199Z" fill="#E27612"/>
<path d="M396.291 276.966H345.547V277.163H396.291V276.966Z" fill="#E27612"/>
<path d="M347.276 276.271C347.613 276.271 347.886 276.006 347.886 275.679C347.886 275.352 347.613 275.087 347.276 275.087C346.939 275.087 346.666 275.352 346.666 275.679C346.666 276.006 346.939 276.271 347.276 276.271Z" fill="#E27612"/>
<path d="M349.03 276.271C349.367 276.271 349.64 276.006 349.64 275.679C349.64 275.352 349.367 275.087 349.03 275.087C348.693 275.087 348.42 275.352 348.42 275.679C348.42 276.006 348.693 276.271 349.03 276.271Z" fill="#E27612"/>
<path d="M350.784 276.271C351.121 276.271 351.394 276.006 351.394 275.679C351.394 275.352 351.121 275.087 350.784 275.087C350.447 275.087 350.174 275.352 350.174 275.679C350.174 276.006 350.447 276.271 350.784 276.271Z" fill="#E27612"/>
<path d="M363.039 304.153C362.829 304.152 362.623 304.101 362.439 304.003C362.254 303.905 362.098 303.764 361.984 303.593C361.87 303.421 361.802 303.225 361.786 303.022C361.77 302.819 361.806 302.615 361.892 302.429L363.345 299.282C362.201 298.299 361.284 297.091 360.658 295.738C360.031 294.386 359.709 292.919 359.711 291.436C359.711 285.642 364.569 280.927 370.54 280.927C376.511 280.927 381.369 285.642 381.369 291.436C381.369 297.23 376.511 301.944 370.54 301.944C369.496 301.943 368.457 301.795 367.456 301.503L363.747 303.941C363.538 304.079 363.292 304.153 363.039 304.153ZM370.54 282.394C368.608 282.393 366.723 282.975 365.147 284.06C363.57 285.145 362.381 286.679 361.744 288.449C361.106 290.22 361.052 292.139 361.589 293.94C362.125 295.742 363.226 297.337 364.739 298.504L365.197 298.858L363.633 302.245L367.222 299.887L367.576 300.002C368.856 300.42 370.215 300.562 371.557 300.419C372.9 300.276 374.194 299.852 375.351 299.176C376.508 298.499 377.499 297.587 378.256 296.501C379.013 295.416 379.518 294.184 379.736 292.891C379.954 291.597 379.879 290.273 379.517 289.011C379.155 287.748 378.515 286.577 377.64 285.578C376.765 284.58 375.677 283.778 374.451 283.228C373.225 282.678 371.891 282.393 370.54 282.394Z" fill="#E27612"/>
<path d="M370.54 292.413C371.375 292.413 372.051 291.757 372.051 290.947C372.051 290.137 371.375 289.481 370.54 289.481C369.706 289.481 369.029 290.137 369.029 290.947C369.029 291.757 369.706 292.413 370.54 292.413Z" fill="#E27612"/>
<path d="M366.259 292.413C367.093 292.413 367.77 291.757 367.77 290.947C367.77 290.137 367.093 289.481 366.259 289.481C365.424 289.481 364.748 290.137 364.748 290.947C364.748 291.757 365.424 292.413 366.259 292.413Z" fill="#E27612"/>
<path d="M374.821 292.413C375.656 292.413 376.332 291.757 376.332 290.947C376.332 290.137 375.656 289.481 374.821 289.481C373.987 289.481 373.31 290.137 373.31 290.947C373.31 291.757 373.987 292.413 374.821 292.413Z" fill="#E27612"/>
<path d="M408.537 285.144H394.177C394.004 285.144 393.838 285.077 393.716 284.958C393.594 284.839 393.525 284.678 393.525 284.51C393.525 284.342 393.594 284.181 393.716 284.062C393.838 283.944 394.004 283.877 394.177 283.877H408.537C408.71 283.877 408.876 283.944 408.998 284.062C409.121 284.181 409.189 284.342 409.189 284.51C409.189 284.678 409.121 284.839 408.998 284.958C408.876 285.077 408.71 285.144 408.537 285.144Z" fill="#E27612"/>
<path d="M399.154 282.452H394.177C394.004 282.452 393.838 282.385 393.716 282.266C393.594 282.147 393.525 281.986 393.525 281.818C393.525 281.65 393.594 281.489 393.716 281.37C393.838 281.252 394.004 281.185 394.177 281.185H399.154C399.327 281.185 399.493 281.252 399.616 281.37C399.738 281.489 399.807 281.65 399.807 281.818C399.807 281.986 399.738 282.147 399.616 282.266C399.493 282.385 399.327 282.452 399.154 282.452Z" fill="#E27612"/>
<path d="M387.674 285.915C389.206 285.915 390.448 284.71 390.448 283.224C390.448 281.737 389.206 280.532 387.674 280.532C386.142 280.532 384.9 281.737 384.9 283.224C384.9 284.71 386.142 285.915 387.674 285.915Z" fill="#E27612"/>
<path d="M409.976 279.107H384.113C383.745 279.107 383.393 279.249 383.133 279.501C382.873 279.754 382.727 280.096 382.726 280.452V285.995C382.727 286.351 382.873 286.693 383.133 286.946C383.393 287.198 383.745 287.34 384.113 287.341H409.976C410.344 287.34 410.696 287.198 410.956 286.946C411.216 286.693 411.363 286.351 411.363 285.995V280.452C411.363 280.096 411.216 279.754 410.956 279.501C410.696 279.249 410.344 279.107 409.976 279.107ZM411.2 285.995C411.2 286.309 411.071 286.611 410.841 286.834C410.612 287.057 410.301 287.182 409.976 287.182H384.113C383.789 287.182 383.478 287.057 383.248 286.834C383.019 286.611 382.89 286.309 382.889 285.995V280.452C382.89 280.138 383.019 279.836 383.248 279.613C383.478 279.39 383.789 279.265 384.113 279.265H409.976C410.301 279.265 410.612 279.39 410.841 279.613C411.071 279.836 411.2 280.138 411.2 280.452V285.995Z" fill="#E27612"/>
<path d="M411.2 281.323C412.236 281.323 413.076 280.508 413.076 279.502C413.076 278.497 412.236 277.681 411.2 277.681C410.164 277.681 409.323 278.497 409.323 279.502C409.323 280.508 410.164 281.323 411.2 281.323Z" fill="#E27612"/>
<path d="M411.142 280.526C411.135 280.519 411.129 280.51 411.125 280.501C411.12 280.491 411.118 280.481 411.118 280.471V278.455C411.118 278.434 411.127 278.414 411.142 278.399C411.158 278.384 411.178 278.376 411.2 278.376C411.222 278.376 411.242 278.384 411.258 278.399C411.273 278.414 411.282 278.434 411.282 278.455V280.471C411.282 280.486 411.277 280.501 411.268 280.514C411.259 280.528 411.246 280.538 411.231 280.544C411.216 280.55 411.2 280.551 411.184 280.548C411.168 280.545 411.154 280.538 411.142 280.526Z" fill="white"/>
<path d="M410.104 279.519C410.092 279.508 410.085 279.494 410.082 279.478C410.078 279.463 410.08 279.447 410.086 279.433C410.092 279.418 410.103 279.406 410.116 279.397C410.13 279.388 410.145 279.384 410.162 279.384H412.238C412.26 279.384 412.281 279.392 412.296 279.407C412.311 279.422 412.32 279.442 412.32 279.463C412.32 279.484 412.311 279.504 412.296 279.519C412.281 279.534 412.26 279.542 412.238 279.542H410.162C410.151 279.542 410.14 279.54 410.13 279.536C410.12 279.532 410.111 279.526 410.104 279.519Z" fill="white"/>
<path d="M413.446 303.706H409.529C409.529 303.815 405.492 303.904 405.492 303.904C405.429 303.95 405.371 304.003 405.32 304.062C405.167 304.24 405.083 304.464 405.084 304.696V304.854C405.084 305.117 405.191 305.368 405.382 305.554C405.574 305.739 405.833 305.844 406.103 305.844H413.446C413.717 305.844 413.976 305.739 414.167 305.554C414.358 305.368 414.466 305.116 414.466 304.854V304.696C414.466 304.433 414.358 304.182 414.167 303.996C413.976 303.811 413.717 303.706 413.446 303.706Z" fill="#E27612"/>
<path d="M410.346 305.804H409.285V312.455H410.346V305.804Z" fill="#E27612"/>
<path d="M413.364 312.419C413.364 312.53 411.757 312.462 409.775 312.462C407.792 312.462 406.185 312.53 406.185 312.419C406.185 312.308 407.792 311.426 409.775 311.426C411.757 311.426 413.364 312.308 413.364 312.419Z" fill="#E27612"/>
<path d="M410.156 294.794C411.417 294.794 412.44 293.801 412.44 292.577C412.44 291.353 411.417 290.36 410.156 290.36C408.894 290.36 407.871 291.353 407.871 292.577C407.871 293.801 408.894 294.794 410.156 294.794Z" fill="white"/>
<path d="M404.471 311.544L403.47 311.544L402.994 307.8L404.471 307.8L404.471 311.544Z" fill="#FFB8B8"/>
<path d="M402.756 311.267H404.685V312.445H401.541C401.541 312.133 401.669 311.833 401.897 311.612C402.125 311.391 402.434 311.267 402.756 311.267Z" fill="white"/>
<path d="M402.909 311.002L401.955 310.712L402.656 307.001L404.064 307.43L402.909 311.002Z" fill="#FFB8B8"/>
<path d="M401.359 310.24L403.199 310.8L402.836 311.925L399.836 311.011C399.933 310.713 400.147 310.464 400.433 310.319C400.718 310.175 401.051 310.146 401.359 310.24Z" fill="white"/>
<path d="M410.768 303.057C410.744 302.868 410.703 302.682 410.643 302.501L410.457 302.273L409.97 301.681L409.949 301.682C409.913 301.683 409.764 301.691 409.533 301.709H409.531C409.388 301.72 409.213 301.734 409.015 301.752C408.963 301.758 408.908 301.763 408.852 301.768V302.595H409.872C409.921 302.595 409.969 302.612 410.006 302.644C410.044 302.676 410.068 302.72 410.074 302.767C410.075 302.776 410.076 302.784 410.076 302.793C410.076 302.845 410.054 302.895 410.016 302.933C409.978 302.97 409.926 302.991 409.872 302.991H403.948C403.873 303.039 403.801 303.092 403.731 303.149C403.523 303.306 403.372 303.524 403.303 303.771C402.957 305.247 402.327 307.999 402.14 308.807C402.127 308.868 402.13 308.932 402.149 308.991C402.169 309.05 402.204 309.104 402.251 309.146C402.285 309.178 402.326 309.202 402.371 309.218L403.106 309.486C403.137 309.497 403.168 309.504 403.2 309.507C403.204 309.507 403.208 309.508 403.212 309.508C403.219 309.509 403.227 309.509 403.235 309.509C403.309 309.509 403.382 309.487 403.443 309.446C403.504 309.405 403.551 309.347 403.578 309.279L404.159 307.8L405.054 305.52L405.408 304.618C405.818 304.712 409.261 305.451 410.414 304.26C410.528 304.142 410.618 304.005 410.679 303.855C410.776 303.6 410.806 303.326 410.768 303.057Z" fill="white"/>
<path d="M411.766 303.272C411.748 303.202 411.728 303.129 411.704 303.055L411.031 302.235L411.01 302.236C410.967 302.238 410.766 302.249 410.457 302.273C410.106 302.302 409.616 302.348 409.065 302.42C409.048 302.421 409.031 302.424 409.015 302.426C408.961 302.433 408.907 302.44 408.852 302.448V302.595H409.872C409.921 302.595 409.969 302.612 410.006 302.644C410.044 302.676 410.068 302.72 410.074 302.767C410.075 302.776 410.076 302.784 410.076 302.793C410.076 302.845 410.054 302.895 410.016 302.933C409.978 302.97 409.926 302.991 409.872 302.991H406.267C406.11 303.04 405.958 303.093 405.813 303.149C405.051 303.442 404.48 303.826 404.364 304.325C404.325 304.493 404.281 304.678 404.236 304.874C404.066 305.604 403.86 306.498 403.673 307.31V307.311C403.634 307.479 403.596 307.642 403.559 307.8C403.403 308.481 403.271 309.058 403.201 309.362C403.199 309.37 403.198 309.378 403.196 309.387V309.389C403.188 309.45 403.196 309.512 403.219 309.57L403.22 309.571V309.571C403.242 309.627 403.279 309.675 403.326 309.713C403.357 309.738 403.393 309.758 403.431 309.773L404.167 310.04C404.208 310.055 404.251 310.063 404.295 310.063C404.357 310.063 404.417 310.048 404.471 310.02C404.548 309.979 404.607 309.913 404.639 309.833L406.223 305.799L406.469 305.173C406.879 305.266 410.322 306.005 411.475 304.814C411.703 304.575 411.833 304.263 411.84 303.937C411.848 303.713 411.823 303.49 411.766 303.272Z" fill="white"/>
<path d="M411.676 296.288C411.663 296.273 411.649 296.258 411.634 296.243C411.417 296.022 411.148 295.853 410.851 295.751C410.554 295.65 410.236 295.618 409.923 295.658C409.651 295.693 409.38 295.745 409.115 295.813C408.771 295.898 408.457 296.07 408.202 296.309C408.004 296.496 407.848 296.72 407.744 296.968C407.64 297.216 407.59 297.482 407.598 297.75C407.601 297.859 407.602 297.969 407.6 298.082C407.6 298.134 407.6 298.187 407.599 298.24H408.403C408.438 298.24 408.473 298.244 408.507 298.252C408.605 298.275 408.692 298.329 408.755 298.406C408.818 298.483 408.852 298.578 408.852 298.676V302.359C408.907 302.374 408.961 302.389 409.015 302.405C409.032 302.41 409.049 302.415 409.065 302.42C409.084 302.425 409.102 302.431 409.12 302.436C409.286 302.486 409.448 302.539 409.606 302.595H409.872C409.921 302.595 409.969 302.612 410.006 302.644C410.044 302.676 410.068 302.72 410.074 302.767C410.13 302.789 410.183 302.81 410.236 302.831C410.425 302.907 410.604 302.983 410.768 303.057C410.989 303.155 411.185 303.249 411.35 303.33C411.402 303.356 411.459 303.369 411.517 303.37C411.594 303.37 411.668 303.346 411.73 303.302C411.742 303.293 411.755 303.283 411.766 303.272C411.81 303.233 411.843 303.183 411.862 303.128C411.882 303.073 411.887 303.015 411.878 302.957C411.794 302.335 411.769 301.707 411.805 301.081C411.827 300.554 411.876 300.014 411.94 299.493C411.974 299.21 412.013 298.933 412.053 298.666C412.091 298.411 412.132 298.167 412.172 297.935C412.224 297.642 412.207 297.341 412.121 297.056C412.035 296.77 411.882 296.507 411.676 296.288Z" fill="#E27612"/>
<path d="M408.331 296.353C408.289 296.335 408.246 296.321 408.202 296.309C407.985 296.252 407.754 296.273 407.551 296.368C407.348 296.463 407.187 296.626 407.098 296.826L406.537 298.082L406.467 298.24H408.403C408.438 298.24 408.473 298.244 408.507 298.252L408.572 298.106L408.82 297.55C408.919 297.328 408.922 297.078 408.831 296.853C408.739 296.629 408.56 296.449 408.331 296.353Z" fill="#E27612"/>
<path d="M410.072 295.04C411.179 295.04 412.076 294.17 412.076 293.096C412.076 292.022 411.179 291.151 410.072 291.151C408.965 291.151 408.068 292.022 408.068 293.096C408.068 294.17 408.965 295.04 410.072 295.04Z" fill="#FFB8B8"/>
<path d="M408.032 292.14C408.981 292.702 410.051 293.045 411.159 293.14L410.829 292.757C411.069 292.843 411.322 292.892 411.578 292.901C411.833 292.897 412.101 292.802 412.246 292.598C412.31 292.496 412.349 292.381 412.357 292.262C412.366 292.143 412.345 292.024 412.297 291.914C412.196 291.696 412.04 291.506 411.842 291.363C411.493 291.095 411.08 290.914 410.641 290.838C410.202 290.762 409.75 290.793 409.326 290.927C409.035 291.011 408.775 291.173 408.574 291.395C408.384 291.622 408.019 291.825 408.116 292.102L408.032 292.14Z" fill="white"/>
<path d="M410.409 290.571C409.777 289.949 409.012 289.469 408.168 289.165C407.627 288.97 407.037 288.85 406.471 288.96C405.905 289.071 405.369 289.451 405.211 289.99C405.082 290.431 405.215 290.906 405.416 291.321C405.616 291.736 405.884 292.121 406.046 292.551C406.212 292.99 406.261 293.463 406.191 293.925C406.12 294.388 405.932 294.826 405.643 295.2C405.354 295.574 404.973 295.872 404.535 296.067C404.097 296.262 403.615 296.348 403.134 296.317C403.691 296.389 404.204 296.643 404.747 296.778C405.291 296.913 405.933 296.904 406.337 296.526C406.765 296.126 406.773 295.475 406.753 294.899C406.722 294.043 406.691 293.187 406.661 292.331C406.645 291.894 406.631 291.443 406.794 291.036C406.956 290.628 407.342 290.271 407.792 290.275C408.133 290.278 408.435 290.478 408.709 290.676C408.983 290.874 409.272 291.085 409.612 291.115C409.952 291.144 410.34 290.9 410.315 290.57L410.409 290.571Z" fill="white"/>
<path d="M412.052 298.666L410.909 298.696L410.825 299.476L410.807 299.657L409.015 300.437L408.852 300.509V301.896L409.015 301.851L409.531 301.709H409.533L411.804 301.081L411.831 301.074C412.014 301.022 412.176 300.915 412.291 300.767C412.407 300.62 412.47 300.44 412.472 300.254L412.478 299.334L412.482 298.655L412.052 298.666Z" fill="#FFB8B8"/>
<path d="M412.425 297.124C412.409 296.883 412.296 296.657 412.11 296.497C411.923 296.338 411.679 296.256 411.43 296.271C411.182 296.286 410.95 296.396 410.785 296.576C410.62 296.757 410.536 296.994 410.551 297.235L410.676 299.212C410.68 299.264 410.695 299.314 410.72 299.36C410.746 299.406 410.782 299.445 410.825 299.476C410.894 299.526 410.979 299.55 411.065 299.545L411.94 299.493L412.205 299.477C412.253 299.475 412.301 299.463 412.344 299.442C412.388 299.422 412.426 299.393 412.458 299.357C412.465 299.35 412.472 299.342 412.478 299.334C412.529 299.266 412.555 299.183 412.549 299.099L412.425 297.124Z" fill="#E27612"/>
<path d="M409.12 302.436H409.015V302.426C408.961 302.433 408.907 302.44 408.852 302.448V302.595H409.606C409.447 302.539 409.286 302.487 409.12 302.436ZM409.12 302.436H409.015V302.426C408.961 302.433 408.907 302.44 408.852 302.448V302.595H409.606C409.447 302.539 409.286 302.487 409.12 302.436ZM409.872 302.436H409.015V298.676C409.015 298.547 408.971 298.422 408.892 298.319C408.812 298.216 408.7 298.141 408.572 298.106C408.517 298.09 408.46 298.082 408.403 298.082H401.142C400.98 298.082 400.824 298.145 400.709 298.256C400.595 298.367 400.53 298.518 400.53 298.676V302.555C400.53 302.713 400.595 302.864 400.709 302.975C400.824 303.086 400.98 303.149 401.142 303.149H409.872C409.962 303.149 410.049 303.116 410.117 303.058C410.184 302.999 410.226 302.919 410.236 302.831C410.238 302.819 410.239 302.806 410.239 302.793C410.239 302.698 410.2 302.608 410.131 302.541C410.062 302.474 409.969 302.437 409.872 302.436ZM410.076 302.793C410.076 302.845 410.054 302.895 410.016 302.933C409.978 302.97 409.926 302.991 409.872 302.991H401.142C401.023 302.991 400.909 302.945 400.825 302.863C400.741 302.781 400.693 302.671 400.693 302.555V298.676C400.693 298.56 400.741 298.449 400.825 298.368C400.909 298.286 401.023 298.24 401.142 298.24H408.403C408.438 298.24 408.473 298.244 408.507 298.252C408.605 298.275 408.692 298.329 408.755 298.406C408.818 298.483 408.852 298.578 408.852 298.676V302.595H409.872C409.921 302.595 409.969 302.612 410.006 302.644C410.044 302.676 410.068 302.72 410.074 302.767C410.075 302.776 410.076 302.784 410.076 302.793ZM409.12 302.436H409.015V302.426C408.961 302.433 408.907 302.44 408.852 302.448V302.595H409.606C409.447 302.539 409.286 302.487 409.12 302.436Z" fill="#E27612"/>
<path d="M404.772 301.091C405.043 301.091 405.262 300.878 405.262 300.615C405.262 300.353 405.043 300.14 404.772 300.14C404.502 300.14 404.283 300.353 404.283 300.615C404.283 300.878 404.502 301.091 404.772 301.091Z" fill="#E27612"/>
<path d="M361.048 261.601C361.047 261.637 361.048 261.674 361.052 261.71L358.49 263.796L357.726 263.528L357.158 264.594L358.828 265.365L361.629 262.315C361.77 262.34 361.916 262.323 362.047 262.265C362.178 262.208 362.288 262.113 362.362 261.993C362.436 261.874 362.471 261.735 362.462 261.596C362.453 261.457 362.4 261.323 362.311 261.214C362.222 261.104 362.101 261.024 361.963 260.983C361.826 260.942 361.679 260.942 361.542 260.984C361.405 261.026 361.284 261.108 361.196 261.218C361.108 261.328 361.056 261.462 361.048 261.601Z" fill="#FFB8B8"/>
<path d="M357.612 265.105L355.138 264.238C354.911 264.159 354.726 263.995 354.623 263.783C354.521 263.571 354.509 263.328 354.591 263.107C354.673 262.887 354.842 262.707 355.06 262.608C355.279 262.508 355.529 262.497 355.757 262.576L358.231 263.443C358.268 263.456 358.303 263.476 358.332 263.502C358.361 263.528 358.385 263.56 358.402 263.595C358.419 263.63 358.429 263.668 358.431 263.706C358.433 263.745 358.427 263.783 358.413 263.82L358.001 264.928C357.973 265.001 357.917 265.061 357.844 265.094C357.772 265.128 357.688 265.131 357.612 265.105Z" fill="#E27612"/>
<path d="M355.8 273.547L356.627 273.547L357.021 270.452L355.8 270.452L355.8 273.547Z" fill="#FFB8B8"/>
<path d="M358.222 274.292L355.623 274.292L355.623 273.318L357.218 273.318C357.484 273.318 357.739 273.42 357.928 273.603C358.116 273.786 358.222 274.034 358.222 274.292Z" fill="white"/>
<path d="M353.757 272.511L354.433 272.972L356.589 270.66L355.591 269.979L353.757 272.511Z" fill="#FFB8B8"/>
<path d="M355.215 274.313L353.089 272.863L353.666 272.066L354.971 272.956C355.189 273.105 355.337 273.331 355.382 273.586C355.428 273.84 355.368 274.102 355.215 274.313Z" fill="white"/>
<path d="M357.61 267.972C357.61 267.972 359.673 267.736 359.303 269.035C358.932 270.335 354.806 271.457 354.806 271.457L357.61 267.972Z" fill="#FFB8B8"/>
<path d="M356.189 261.342C357.104 261.342 357.846 260.623 357.846 259.735C357.846 258.847 357.104 258.127 356.189 258.127C355.275 258.127 354.533 258.847 354.533 259.735C354.533 260.623 355.275 261.342 356.189 261.342Z" fill="#FFB8B8"/>
<path d="M350.907 271.191C349.964 270.126 349.634 268.491 351.138 267.132C351.509 266.804 351.929 266.533 352.384 266.328L353.596 263.04C353.722 262.697 353.952 262.399 354.257 262.186C354.562 261.974 354.926 261.856 355.302 261.85C355.666 261.834 356.027 261.929 356.334 262.12C356.64 262.312 356.879 262.591 357.016 262.919C357.164 263.253 357.181 263.628 357.063 263.973C356.703 265.063 356.229 266.114 355.65 267.112L355.712 267.598L358.774 267.862L358.746 267.907C358.731 267.931 357.232 270.146 355.315 271.617C354.66 272.12 353.982 272.328 353.342 272.328C352.372 272.328 351.489 271.849 350.907 271.191Z" fill="#E27612"/>
<path d="M350.618 260.239C350.911 259.9 351.037 259.457 351.138 259.026C351.298 258.343 351.421 257.637 351.777 257.028C352.132 256.419 352.786 255.914 353.506 255.953C354.222 255.991 354.801 256.55 355.108 257.186C355.183 257.158 355.262 257.146 355.342 257.149C355.422 257.153 355.5 257.173 355.571 257.208C355.793 257.326 355.875 257.66 355.691 257.828C355.885 257.738 356.096 257.689 356.311 257.684C356.526 257.679 356.739 257.717 356.937 257.798C357.192 257.903 357.412 258.074 357.573 258.293C357.734 258.512 357.83 258.77 357.85 259.038C357.857 259.147 357.842 259.256 357.804 259.359C357.767 259.462 357.708 259.556 357.631 259.636C357.313 259.953 356.864 259.844 356.464 259.763C356.087 259.687 355.627 259.666 355.414 260.015C355.33 260.161 355.307 260.332 355.349 260.493C355.43 260.842 355.696 261.084 355.954 261.317L355.996 261.393C355.085 261.565 354.091 260.961 353.852 260.091C353.613 259.222 354.166 258.218 355.045 257.928C354.986 257.929 354.928 257.916 354.877 257.889C354.826 257.862 354.783 257.822 354.753 257.773C354.723 257.724 354.707 257.669 354.706 257.612C354.706 257.555 354.721 257.499 354.75 257.45C354.507 257.318 354.232 257.251 353.953 257.257C353.499 257.286 353.107 257.599 352.871 257.976C352.635 258.354 352.528 258.791 352.419 259.22C352.311 259.648 352.194 260.085 351.941 260.452C351.767 260.706 351.533 260.917 351.259 261.068C350.985 261.219 350.679 261.305 350.365 261.321C350.05 261.337 349.736 261.281 349.448 261.158C349.16 261.035 348.905 260.848 348.704 260.613C349.021 260.762 349.38 260.806 349.726 260.739C350.072 260.671 350.385 260.496 350.618 260.239Z" fill="white"/>
<path d="M362.784 264.62C364.114 264.62 365.192 263.574 365.192 262.283C365.192 260.993 364.114 259.947 362.784 259.947C361.454 259.947 360.376 260.993 360.376 262.283C360.376 263.574 361.454 264.62 362.784 264.62Z" fill="#E27612"/>
<path d="M362.71 263.597C362.7 263.588 362.693 263.577 362.687 263.564C362.682 263.552 362.679 263.539 362.679 263.525V260.939C362.679 260.912 362.69 260.887 362.71 260.868C362.73 260.849 362.756 260.838 362.784 260.838C362.812 260.838 362.839 260.849 362.858 260.868C362.878 260.887 362.889 260.912 362.889 260.939V263.525C362.889 263.546 362.883 263.565 362.871 263.582C362.86 263.599 362.843 263.612 362.824 263.619C362.805 263.627 362.784 263.629 362.764 263.625C362.743 263.621 362.725 263.611 362.71 263.597Z" fill="white"/>
<path d="M361.378 262.304C361.363 262.29 361.353 262.272 361.349 262.252C361.345 262.233 361.347 262.212 361.355 262.194C361.363 262.175 361.376 262.159 361.394 262.148C361.411 262.137 361.431 262.131 361.452 262.131H364.117C364.144 262.131 364.171 262.142 364.191 262.161C364.21 262.18 364.221 262.205 364.221 262.232C364.221 262.259 364.21 262.285 364.191 262.304C364.171 262.323 364.144 262.334 364.117 262.334H361.452C361.438 262.334 361.424 262.331 361.412 262.326C361.399 262.321 361.387 262.314 361.378 262.304Z" fill="white"/>
<path d="M361.131 263.846C361.114 263.878 361.099 263.911 361.087 263.946L357.854 264.778L357.28 264.219L356.299 264.95L357.473 266.337L361.344 264.732C361.461 264.813 361.601 264.857 361.745 264.859C361.888 264.861 362.029 264.82 362.149 264.743C362.268 264.665 362.36 264.554 362.413 264.424C362.466 264.294 362.476 264.152 362.444 264.016C362.411 263.88 362.337 263.757 362.23 263.664C362.124 263.57 361.991 263.51 361.848 263.491C361.706 263.473 361.561 263.497 361.433 263.56C361.305 263.624 361.2 263.723 361.131 263.846Z" fill="#FFB8B8"/>
<path d="M356.487 265.6L354.627 263.795C354.542 263.713 354.475 263.616 354.429 263.509C354.383 263.402 354.359 263.287 354.359 263.17C354.359 263.054 354.382 262.939 354.428 262.832C354.474 262.725 354.541 262.627 354.626 262.545C354.71 262.463 354.811 262.398 354.921 262.353C355.032 262.309 355.15 262.286 355.27 262.286C355.39 262.286 355.508 262.309 355.619 262.354C355.729 262.398 355.83 262.464 355.914 262.546L357.774 264.351C357.802 264.378 357.825 264.411 357.84 264.446C357.855 264.482 357.863 264.52 357.863 264.559C357.863 264.598 357.855 264.636 357.84 264.672C357.825 264.707 357.802 264.74 357.774 264.767L356.916 265.6C356.859 265.655 356.782 265.686 356.701 265.686C356.621 265.686 356.543 265.655 356.487 265.6Z" fill="#E27612"/>
</g>
<path d="M443.072 92.9857C443.072 117.177 419.204 137.1 389.338 137.1C359.472 137.1 335.604 117.177 335.604 92.9857C335.604 68.7943 359.472 48.8716 389.338 48.8716C419.204 48.8716 443.072 68.7943 443.072 92.9857Z" fill="var(--background)" stroke="white" stroke-width="2"/>
<g clip-path="url(#clip3_141_4)">
<path d="M408.077 123.356H406.309C406.103 123.356 405.905 123.276 405.759 123.134C405.613 122.992 405.531 122.8 405.531 122.599V108.266C405.531 108.066 405.613 107.873 405.759 107.731C405.905 107.589 406.103 107.509 406.309 107.509H408.077C408.283 107.509 408.481 107.589 408.627 107.731C408.773 107.873 408.855 108.066 408.855 108.266V122.599C408.855 122.8 408.773 122.992 408.627 123.134C408.481 123.276 408.283 123.356 408.077 123.356Z" fill="white"/>
<path d="M410.622 104.106L409.239 103.035C409.165 102.978 409.081 102.935 408.99 102.91C408.899 102.885 408.804 102.877 408.711 102.887C408.617 102.898 408.526 102.926 408.443 102.97C408.361 103.015 408.288 103.075 408.229 103.146L399.052 114.359C398.994 114.431 398.95 114.513 398.924 114.601C398.898 114.689 398.89 114.782 398.901 114.873C398.911 114.964 398.94 115.053 398.986 115.133C399.032 115.213 399.093 115.284 399.167 115.341L399.205 115.37L403.669 122.261C403.719 122.339 403.785 122.406 403.862 122.459C403.939 122.512 404.026 122.55 404.118 122.57C404.21 122.59 404.305 122.593 404.398 122.577C404.491 122.562 404.58 122.529 404.66 122.48L406.155 121.563C406.316 121.464 406.431 121.307 406.473 121.126C406.515 120.945 406.482 120.756 406.38 120.599L402.696 114.912L410.737 105.089C410.795 105.017 410.839 104.934 410.865 104.846C410.891 104.758 410.899 104.666 410.888 104.574C410.878 104.483 410.849 104.395 410.803 104.314C410.757 104.234 410.696 104.163 410.622 104.106Z" fill="white"/>
<path d="M409.253 112.647H400.75C400.48 112.647 400.221 112.542 400.03 112.357C399.839 112.171 399.732 111.919 399.732 111.657V109.676C399.732 109.414 399.839 109.162 400.03 108.976C400.221 108.791 400.48 108.686 400.75 108.686H409.253C409.523 108.686 409.782 108.791 409.972 108.976C410.163 109.162 410.271 109.414 410.271 109.676V111.657C410.271 111.919 410.163 112.171 409.972 112.357C409.782 112.542 409.523 112.647 409.253 112.647Z" fill="#CCCCCC"/>
<path d="M423.703 123.279H384.895V123.54H423.703V123.279Z" fill="white"/>
<path d="M406.257 90.7536C409.797 90.7536 412.667 87.9619 412.667 84.5181C412.667 81.0743 409.797 78.2826 406.257 78.2826C402.717 78.2826 399.848 81.0743 399.848 84.5181C399.848 87.9619 402.717 90.7536 406.257 90.7536Z" fill="white"/>
<path d="M412.861 109.893H399.679C399.473 109.893 399.275 109.813 399.129 109.671C398.983 109.529 398.901 109.337 398.901 109.136L401.537 96.0161C401.54 94.8915 402.002 93.814 402.82 93.0198C403.638 92.2255 404.747 91.7792 405.903 91.7787H406.759C407.916 91.78 409.026 92.2279 409.844 93.0241C410.663 93.8204 411.123 94.9 411.125 96.0261L413.639 109.125C413.64 109.225 413.621 109.325 413.582 109.418C413.544 109.511 413.487 109.595 413.414 109.667C413.342 109.738 413.256 109.795 413.161 109.834C413.066 109.873 412.964 109.893 412.861 109.893Z" fill="#E27612"/>
<path d="M401.261 86.6C400.865 86.5892 400.372 86.5758 399.993 86.306C399.88 86.2224 399.787 86.1158 399.721 85.9936C399.655 85.8714 399.617 85.7366 399.61 85.5986C399.603 85.5005 399.619 85.4023 399.658 85.3114C399.697 85.2206 399.756 85.1397 399.833 85.0751C400.031 84.9121 400.32 84.8739 400.632 84.9631L400.309 82.6648L400.547 82.6332L400.926 85.3352L400.728 85.2466C400.498 85.1441 400.183 85.0919 399.987 85.2531C399.939 85.2952 399.902 85.3475 399.878 85.406C399.854 85.4645 399.844 85.5276 399.849 85.5904C399.855 85.693 399.883 85.7933 399.933 85.8843C399.982 85.9754 400.051 86.055 400.134 86.1179C400.429 86.3278 400.822 86.3549 401.268 86.3671L401.261 86.6Z" fill="#E27612"/>
<path d="M403.208 82.8631H401.917V83.0961H403.208V82.8631Z" fill="#E27612"/>
<path d="M394.15 104.582L395.281 105.903C395.535 106.199 395.988 106.24 396.293 105.992L407.612 96.8173C407.917 96.5701 407.958 96.1293 407.704 95.8327L406.572 94.5116C406.318 94.215 405.865 94.1749 405.56 94.4221L394.242 103.597C393.937 103.844 393.896 104.285 394.15 104.582Z" fill="white"/>
<path d="M408.27 96.5437L403.602 100.859C403.456 100.994 403.263 101.069 403.062 101.069C402.861 101.068 402.668 100.993 402.523 100.858L400.411 98.8912C400.328 98.8135 400.263 98.7188 400.222 98.6139C400.18 98.509 400.163 98.3965 400.172 98.2845C400.181 98.1725 400.215 98.0637 400.272 97.9661C400.329 97.8684 400.408 97.7843 400.502 97.7197L406.039 93.938C406.198 93.8093 406.403 93.7472 406.61 93.7653C406.816 93.7835 407.006 93.8804 407.139 94.0349L408.37 95.472C408.503 95.6271 408.567 95.827 408.548 96.028C408.529 96.2289 408.429 96.4144 408.27 96.5437Z" fill="#E27612"/>
<path d="M406.599 78.2025C406.329 77.0023 406.662 75.7339 407.384 74.7397C408.12 73.7267 409.272 73.0494 410.494 72.7402C412.862 72.1408 415.376 72.9777 417.13 74.5748C419.022 76.2983 419.867 78.8041 419.745 81.2916C419.622 83.8137 418.506 86.1817 416.832 88.0859C416.008 89.0188 415.07 89.8508 414.04 90.5637C413.531 90.9168 412.937 91.3768 412.282 91.3871C411.809 91.3946 411.203 91.0958 411.328 90.5513C411.371 90.3638 411.506 90.1602 411.719 90.1357C411.946 90.1096 411.948 89.7598 411.719 89.7862C411.162 89.8502 410.837 90.4374 410.988 90.9476C411.155 91.5115 411.827 91.78 412.385 91.7311C413.093 91.6692 413.701 91.229 414.26 90.8383C414.818 90.4491 415.352 90.0268 415.857 89.5739C417.861 87.7717 419.41 85.4245 419.922 82.7915C420.437 80.1391 419.929 77.2594 418.154 75.1318C416.544 73.2013 413.955 71.9548 411.373 72.2309C410.017 72.376 408.693 72.9141 407.706 73.8436C407.222 74.2976 406.835 74.8403 406.567 75.4404C406.299 76.0405 406.156 76.6862 406.145 77.3404C406.145 77.6615 406.181 77.9818 406.253 78.2954C406.302 78.515 406.648 78.4221 406.599 78.2025Z" fill="#E27612"/>
<path d="M407.44 78.3873C407.392 77.9587 407.445 77.5249 407.595 77.1192C407.745 76.7135 407.989 76.3465 408.307 76.0464C408.625 75.7463 409.01 75.5209 409.432 75.3874C409.853 75.254 410.3 75.2161 410.739 75.2765C410.968 75.3046 410.966 74.9548 410.739 74.927C410.253 74.8666 409.759 74.9137 409.294 75.0647C408.829 75.2158 408.404 75.4669 408.053 75.7994C407.701 76.132 407.431 76.5373 407.263 76.9854C407.095 77.4334 407.032 77.9126 407.081 78.3873C407.103 78.6092 407.462 78.6115 407.44 78.3873Z" fill="#E27612"/>
<path d="M406.013 76.956C405.885 76.9559 405.761 77.0002 405.663 77.081C405.565 77.1617 405.501 77.2737 405.48 77.3968C405.46 77.5199 405.485 77.646 405.552 77.7525C405.618 77.8591 405.722 77.9391 405.843 77.9782L407.549 78.5261C407.685 78.5697 407.833 78.5591 407.961 78.4965C408.088 78.434 408.185 78.3246 408.23 78.1926C408.275 78.0606 408.264 77.9166 408.199 77.7924C408.135 77.6682 408.023 77.574 407.887 77.5304L406.181 76.9824C406.127 76.9649 406.07 76.956 406.013 76.956Z" fill="#E27612"/>
<path d="M372.701 99.1255H372.674C362.387 99.1255 354.017 90.9837 354.017 80.9758C354.017 70.9681 362.387 62.8262 372.674 62.8262C382.962 62.8262 391.331 70.9681 391.331 80.9758C391.33 83.4307 390.818 85.8598 389.825 88.1166C388.832 90.3733 387.379 92.4108 385.553 94.106L389.307 98.1992L389.115 98.2786C386.003 99.562 382.851 97.8126 381.563 96.9363C378.842 98.3711 375.796 99.1235 372.701 99.1255ZM372.674 63.1176C362.552 63.1176 354.317 71.1288 354.317 80.9758C354.317 90.8228 362.552 98.8341 372.674 98.8341C375.76 98.8366 378.796 98.081 381.501 96.6373L381.583 96.5932L381.659 96.6463C382.829 97.4559 385.83 99.1867 388.802 98.0867L385.136 94.0882L385.242 93.991C387.069 92.3208 388.525 90.3044 389.521 88.0661C390.517 85.8278 391.031 83.4149 391.032 80.976C391.032 71.1288 382.797 63.1176 372.674 63.1176Z" fill="white"/>
<path d="M378.452 78.0062C374.624 77.9674 370.795 77.9008 366.967 77.8502C365.691 77.8334 364.414 77.8186 363.138 77.8059C362.038 77.7948 362.035 76.1311 363.138 76.1422C366.966 76.181 370.795 76.2476 374.623 76.2982C375.9 76.3151 377.176 76.3299 378.452 76.3426C379.552 76.3537 379.555 78.0174 378.452 78.0062Z" fill="white"/>
<path d="M382.647 81.8881L367.173 81.7321L362.772 81.6877C361.672 81.6766 361.669 80.013 362.772 80.0241L378.246 80.18L382.647 80.2244C383.747 80.2355 383.749 81.8992 382.647 81.8881Z" fill="white"/>
<path d="M382.647 85.7699L367.173 85.614L362.772 85.5696C361.672 85.5585 361.669 83.8948 362.772 83.9059L378.246 84.0619L382.647 84.1063C383.747 84.1173 383.749 85.781 382.647 85.7699Z" fill="white"/>
<path d="M391.265 101.339C391.86 101.339 392.342 100.87 392.342 100.291C392.342 99.7115 391.86 99.2421 391.265 99.2421C390.669 99.2421 390.187 99.7115 390.187 100.291C390.187 100.87 390.669 101.339 391.265 101.339Z" fill="#E6E6E6"/>
</g>
</g>
<defs>
<clipPath id="clip0_141_4">
<rect width="509" height="359" fill="white"/>
</clipPath>
<clipPath id="clip1_141_4">
<rect width="93.3962" height="67.692" fill="white" transform="translate(56.1787 44.1629)"/>
</clipPath>
<clipPath id="clip2_141_4">
<rect width="80.5743" height="56.5317" fill="white" transform="translate(333.892 255.951)"/>
</clipPath>
<clipPath id="clip3_141_4">
<rect width="69.6859" height="60.7142" fill="white" transform="translate(354.017 62.8262)"/>
</clipPath>
</defs>
</svg>
